<svg xmlns="http://www.w3.org/2000/svg" viewBox="0 0 202.04 202.04"><defs><style>.cls-1{fill:#e5e5e5;}.cls-2{fill:#14213d;}.cls-3{fill:none;stroke:#14213d;stroke-linejoin:round;stroke-width:7px;}</style></defs><g id="Capa_2" data-name="Capa 2"><g id="Capa_1-2" data-name="Capa 1"><circle class="cls-1" cx="101.02" cy="101.02" r="101.02"/><path class="cls-2" d="M101,195.43A94.43,94.43,0,0,1,64.27,14a94.43,94.43,0,0,1,73.5,174A93.77,93.77,0,0,1,101,195.43Zm0-169.67A75.26,75.26,0,1,0,176.27,101,75.34,75.34,0,0,0,101,25.76Z"/><path class="cls-2" d="M160.22,65.58a1.74,1.74,0,0,1,.82.92A6.5,6.5,0,0,0,163,68.25q-1.38-2.58-3-5A1.61,1.61,0,0,0,160.22,65.58Z"/><path class="cls-2" d="M86.85,53.8c.59,0,1.38-.4,1.38-.69,0-.46-.85-.33-1.31.19C86.66,53.6,86.66,53.8,86.85,53.8Z"/><path class="cls-2" d="M95.53,32.29c1,.39.65,1-.49.75-.79-.13-1-.1-.59.13a3.4,3.4,0,0,0,1.44.33c.75,0,.85.06.56.46a3.11,3.11,0,0,0-.53,1.4c-.06.49-.13,1-.16,1.08s-.23-.13-.49-.45c-.49-.63-.49-.63-1.18.06s-.62,1.6.46,3.08c.52.69.85.85,1.44.72.82-.23,1.05.33.26.65s-.59.66,1.24,2.46c1.31,1.31,1.87,1.67,2.49,1.57a3,3,0,0,1,1.8.46,4.74,4.74,0,0,0,1.38.62c.52,0,1.47-2.13,1.24-2.75-.13-.36,0-.52.33-.52a.49.49,0,0,0,.52-.46,1.85,1.85,0,0,1,.49-1,1.19,1.19,0,0,0,.43-.86c-.13-.52,3-2.19,3.57-1.86s2.91-.56,4.09-1.67c.66-.62,1.34-1,1.54-.92.44.29,5.17-.57,6.91-1.25a70,70,0,0,0-21-3.23q-3.54,0-7,.35a1,1,0,0,1,.24.17A4.54,4.54,0,0,0,95.53,32.29Z"/><path class="cls-2" d="M150.43,56.58a5.16,5.16,0,0,0-1.67,1.18,2.64,2.64,0,0,1-1.73,1,1.17,1.17,0,0,0-1.05.49c-.13.32-.65.49-1.47.49-1.41,0-1.71.52-.46.85a3.86,3.86,0,0,1,1.64,1.31,2.3,2.3,0,0,1,.62,2.32c-.36,2.07-.53,2.16-4.06,1.94a12.52,12.52,0,0,0-3.44,0,5.31,5.31,0,0,0-.36,2.29c0,1.15-.1,2.26-.1,2.46a7.86,7.86,0,0,0,.17,1.47c.16.92.36,1.08,1.14,1.08a1.76,1.76,0,0,1,1.38.65c.42.63.52.63,1.4.17a4.88,4.88,0,0,1,1.77-.49,3.24,3.24,0,0,0,2.62-2.39,4.09,4.09,0,0,1,2.33-3.11c.62-.3,1.11-.79,1.14-1,.07-1.11.17-1.28.76-1.47a2.63,2.63,0,0,1,1.47.16c.72.26,1.11.16,2.16-.49a5.71,5.71,0,0,1,1.73-.82c.27,0,1.08.75,1.87,1.67a9,9,0,0,0,2.42,2.09,8.59,8.59,0,0,1,2.2,1.61c.82.78,1.14,1,1,.55a1,1,0,0,1,0-.41c-.31-.63-.63-1.25-1-1.86A6.5,6.5,0,0,1,161,66.5a1.74,1.74,0,0,0-.82-.92,1.61,1.61,0,0,1-.2-2.35,69.35,69.35,0,0,0-6.79-8.91,6.51,6.51,0,0,0-.83.75A5.87,5.87,0,0,1,150.43,56.58Z"/><path class="cls-2" d="M167.81,79.71c-.18.23-.27.47-.16.64a1.65,1.65,0,0,1,0,1c-.16.52-.42.65-1.08.52a7.73,7.73,0,0,1-4-1.83,3,3,0,0,0-1.83-.92c-1.18-.16-3.44-1.24-3.44-1.6a4.07,4.07,0,0,1,.52-1c.43-.63.46-.92.17-1.21a1.53,1.53,0,0,1-.36-.92c0-.49-.33-.56-2.69-.43-4.78.26-6,.49-7.63,1.31s-4.65,1.08-5.3.43c-.3-.3-.52-.1-1,.75a4.47,4.47,0,0,1-1.47,1.7,4.13,4.13,0,0,0-1.94,3.41,4,4,0,0,1-2.52,3.21c-.59.26-1.08.65-1.08.91a1.94,1.94,0,0,1-.65,1,2.12,2.12,0,0,0-.66.91,14.6,14.6,0,0,1-1.17,2.62c-1,1.9-1.12,2.39-.86,3.15A9.24,9.24,0,0,1,131,99c-.52,2-.39,4.48.3,5.07a14.8,14.8,0,0,1,2.94,4.16,2.6,2.6,0,0,0,.72,1.31c.3.23,1.22,1,2,1.77,2.23,1.93,2.66,2.12,3.74,1.57a7,7,0,0,1,3.14-.4,6.83,6.83,0,0,0,3.8-.72,8.32,8.32,0,0,1,2.94-.78c1.18,0,1.41.1,2.13,1.21s.92,1.24,2.13,1.08c2.32-.39,3,1.37,2.13,5.37-.36,1.57-.2,2.65.46,3.34,1.73,1.77,3.14,5,3.66,8.45.33,2.16.27,3.14-.32,4a16.93,16.93,0,0,0-1.48,5.17,1,1,0,0,0,.06.29,70,70,0,0,0,8.48-60.18Z"/><path class="cls-2" d="M33.55,86.27c.66.4,1,.82,1,1.34a1.8,1.8,0,0,0,.55,1.25c.49.42.53.36.33-.66a13.93,13.93,0,0,0-2.05-4c-.14.54-.26,1.09-.38,1.64A2.4,2.4,0,0,0,33.55,86.27Z"/><path class="cls-2" d="M84.5,167.43c.19-1.27.26-1.34,1.34-1.34,2.16,0,4.91-1.87,4-2.75a1.29,1.29,0,0,1-.33-.82,1.91,1.91,0,0,0-.56-1.08c-.72-.82-.36-1.08.92-.62,1.8.62,2.45.46,3.5-.88a6.83,6.83,0,0,0,1.21-2.1,9.06,9.06,0,0,1,1.8-2.55c1.38-1.48,1.57-1.87,1.71-3.47a3.85,3.85,0,0,1,.91-2.59,11.15,11.15,0,0,1,4.65-2.62c1.44-.33,1.77-.62,2.59-2.42a17.29,17.29,0,0,0,1.57-6.75c.2-2.52.26-2.71,1.9-4.94,2.06-2.78,2.49-3.86,2.22-5.37-.26-1.34-.68-2-1.4-2a5.19,5.19,0,0,1-1.87-1.25,4.5,4.5,0,0,0-3.34-1.5,7.56,7.56,0,0,0-2.49,0c-.42.13-.55,0-.55-.49,0-.72-1-1.51-2.3-1.84a1.35,1.35,0,0,0-1.44.46,2.16,2.16,0,0,1-.95.69c-.19,0-.09-.26.2-.59,1-1.05.69-1.47-.75-1.28s-1.57,0-.85-1.18c.42-.62.42-.91-.1-2.45-.92-2.69-2.49-4-4.78-4a3.86,3.86,0,0,1-3.28-1.93,2.23,2.23,0,0,0-1.11-1,2,2,0,0,1-1.11-.92,3,3,0,0,0-1.34-1.18c-1-.52-1.35-.59-1.84-.26a1.57,1.57,0,0,1-1.47.07,5.09,5.09,0,0,0-1.64-.33,1.34,1.34,0,0,1-1.08-.53c-.33-.62-1.8-.72-2.45-.16a1.51,1.51,0,0,0-.3,1.38c.13.78,0,1-.29.88a1.25,1.25,0,0,1-.49-1.11c-.1-2.23,0-2.13-1.77-1.38-1,.43-1.64.89-1.64,1.21a3.23,3.23,0,0,1-.82,1.44l-.82.92-1-.72c-.88-.69-1.08-.69-2.26-.29-1.63.52-2.09.36-3.14-1.25-.79-1.18-.82-1.41-.52-3.37.42-3.11.06-3.57-3-3.57-2.1,0-2.29-.07-2.1-.59a11.13,11.13,0,0,0,.5-2,13.4,13.4,0,0,1,.75-2.72c.62-1.47.33-1.73-1.44-1.31a1.62,1.62,0,0,0-1.38,1.44c-.42,1.58-.68,1.84-2.49,2.07-2.32.29-3.17-.2-4.32-2.62-1-2-1-2.13-.65-4.45a12.37,12.37,0,0,0,.16-3c-.29-1.28.92-2.65,3.34-3.73a4.4,4.4,0,0,1,2.13,0c2,.36,2,.36,1.83-.17-.13-.29.1-.52.53-.65,1.18-.29,4.09-.23,4.32.13a1.67,1.67,0,0,0,1.11.33,2.26,2.26,0,0,1,2,2.29,5,5,0,0,0,1.41,2.91c.88.72,1-.78.26-3.07-1-3.08-.92-3.9.56-5.34a19.92,19.92,0,0,1,2.06-1.77,4,4,0,0,0,1.7-4c-.33-1.24-.2-2.52.26-2.52.2,0,.23.29.13.65s-.06.66.3.66a.6.6,0,0,0,.52-.66c0-.36.17-.65.36-.65s.49-.43.66-.95a2.2,2.2,0,0,1,1.67-1.41,2,2,0,0,0,1.7-1.57c.29-1,.72-1.31,2.32-2.13,2.69-1.34,4.06-1.8,4.62-1.57.75.3.52.66-.52.89a1.64,1.64,0,0,0-1.18.68c-.33.79.13,1,.82.36a5.8,5.8,0,0,1,1.8-.88c1.37-.36,1.57-.95.36-.95-.79,0-1.22-.36-2.92-2.32-.69-.79-.65-.89.13-1,1.15-.16.56-.75-.72-.69A5.24,5.24,0,0,0,77,61.13c-.29.36-.65.56-.82.42s.76-1.27,3.38-3.43c.78-.66,1.24-.72,4.15-.72,2.75,0,3.38-.1,4.06-.66a3.18,3.18,0,0,1,1.57-.65,1.93,1.93,0,0,0,1.28-.63c.56-.62.39-1.66-.26-1.66a4.21,4.21,0,0,1-1.51-1,3.7,3.7,0,0,0-1.63-1c-.63,0-2.3-1.83-2.3-2.52a12.72,12.72,0,0,0-2.55-3.7,6.53,6.53,0,0,0-1.24,1.15c-1,1.11-2.16,1.47-2.59.81a1,1,0,0,0-.82-.32c-.46,0-.69-.33-.85-1.18a2.21,2.21,0,0,0-.75-1.38,11.24,11.24,0,0,1-1.57-.88c-.79-.56-1.58-.72-3.34-.75L68.91,43l.2.92a9.4,9.4,0,0,0,.33,1.31,2.59,2.59,0,0,1-.27,1.24c-.32.72-.29.92.17,1.25a2.73,2.73,0,0,1,.88,2.81,4.34,4.34,0,0,1-1.44,1.28c-1.08.69-1.08.72-.78,2.16.39,1.83.19,2.45-.82,2.45s-2.46-1.57-2.79-3.11c-.22-1.21-.36-1.31-1.53-1.5a14.88,14.88,0,0,1-4.69-1.67,8.43,8.43,0,0,0-2.55-.75A3,3,0,0,1,54.51,49,69.93,69.93,0,0,0,34,81.94L34,82a15.71,15.71,0,0,0,2.13,3.17,6.1,6.1,0,0,1,1.34,1.87.91.91,0,0,0,.46.69,13.23,13.23,0,0,1,1.87,2,5.76,5.76,0,0,1,1.54,3.34c.19,2,.81,2.62,5.33,4.88,2.92,1.47,3.6,1.67,4.16,1.38,1.15-.63,1.83-.4,3.14.91a8.78,8.78,0,0,0,4.91,2.33.85.85,0,0,1,.69.62,3.24,3.24,0,0,0,.82,1.18,1.92,1.92,0,0,1,.65,1.08c0,.52,2.59,3,3.15,3a3.2,3.2,0,0,1,1.21.65l.85.66.1-.69a1.22,1.22,0,0,1,1.83-1c.3.2.53.56.46.76a2.25,2.25,0,0,0,.39,1.14c1,1.51.63,6.06-.46,6.06-.19,0-.32.23-.32.49a2.12,2.12,0,0,1-.56,1.08c-1.18,1.18-2,4.32-1.08,4.32.52,0,.39.66-.33,1.54a2.44,2.44,0,0,0,.3,3.21,8.73,8.73,0,0,1,1.11,1.8,68.72,68.72,0,0,1,3,7c.33,1.31.65,1.67,2.75,3a15.35,15.35,0,0,1,2.55,2c.82.88.82.92.63,5.63a51.62,51.62,0,0,1-.5,6.06,44.18,44.18,0,0,0-.52,4.42,22.23,22.23,0,0,1-1.14,5.73,23.19,23.19,0,0,0-.81,2.93,69.74,69.74,0,0,0,9.91,3.4l.72.12ZM86.92,53.3c.46-.52,1.31-.65,1.31-.19,0,.29-.79.69-1.38.69C86.66,53.8,86.66,53.6,86.92,53.3Z"/><path class="cls-2" d="M74,37.49a2.42,2.42,0,0,0-.82,1.11c-.26.66-.53.79-1.77.79-1.6,0-2.49.23-2.49.69s1.31.36,2.52,0c.85-.29,1.25-.22,2.59.5a11.19,11.19,0,0,1,1.77,1.08A10.26,10.26,0,0,0,79.55,43c.66,0,.66,0,0-.52-.36-.26-.88-.62-1.14-.79-1-.55,0-.65,1.27-.13S82,42,82,41.39c0-.2-.66-.82-1.48-1.41-1.44-1.08-1.76-1.67-1.14-2.06.42-.27,2.62.42,2.62.82s1.18.49,1.9-.14.91-1.17.19-1.17a3.62,3.62,0,0,1-1.21-.4A19.64,19.64,0,0,0,80.21,36c-1.24-.42-1.73-.67-1.84-1-1.36.47-2.71,1-4,1.52C74.64,36.89,74.51,37.22,74,37.49Z"/><path class="cls-2" d="M93.66,34.15c.46,0,.72-.13.63-.33s-.56-.32-1-.32-.72.13-.62.32A1.37,1.37,0,0,0,93.66,34.15Z"/><path class="cls-2" d="M132.85,39c-.69-.59-1.86-1-2.13-.76a4.37,4.37,0,0,1-1.44.3c-.68.1-1.83.26-2.48.39-.86.13-1.25.1-1.25-.16s-.23-.36-.49-.36-.43.13-.2.55a7.78,7.78,0,0,1,.49,1.18c.2.63,1.48,1.21,2.62,1.21a19.11,19.11,0,0,0,5.21-1.6C133.31,39.62,133.15,39.29,132.85,39Z"/><path class="cls-2" d="M143.2,51.83c1,0,1.86,2.29.85,2.29-.3,0-.62.33-.79.72-.23.62-.13.82.59,1.12l.85.36-.88.26c-.52.13-.92.39-.92.55s.26.23.59.1a8.14,8.14,0,0,1,3-.46,1.71,1.71,0,0,0,1.71-.91c.52-.89.52-.92-.82-2.23-2.06-2.06-2.92-3.37-2.69-4.09.17-.52.07-.66-.62-.66s-.85-.16-.85-.65c0-.82-.39-.85-1.08-.07a1.91,1.91,0,0,0-.56,1C141.59,49.87,142.74,51.83,143.2,51.83Z"/><path class="cls-2" d="M138,53.8c.2,0,.17.32-.06.81-.53,1.15-.17,1.35,1.4.82s1.44-.49,1.77-2.39c.2-1.21.2-1.21-1-1.21-.75,0-1.15.16-1.15.46s-.29.52-.65.62C137.66,53.08,137.4,53.8,138,53.8Z"/><path class="cls-2" d="M92,58.71a1.41,1.41,0,0,1-1-.33.39.39,0,0,0-.52-.16c-.17.13-.2-.23-.1-.82.33-1.51-.1-1.18-1.18,1-.52,1.08-1,2-1,2.13,0,.32,4.55.16,4.75-.17A1.15,1.15,0,0,0,92,58.71Z"/><path class="cls-2" d="M156.82,70.49c.26-.42-.13-1.63-.53-1.63-.16,0-.29.42-.29,1C156,70.82,156.42,71.15,156.82,70.49Z"/><path class="cls-2" d="M162.15,73.77c.85,0,.36-.92-.59-1-.52-.1-1-.07-1,0C160.58,73,161.73,73.73,162.15,73.77Z"/><path class="cls-2" d="M71.56,93.74a14.28,14.28,0,0,1-2.25-1.15c-2-1.21-4-1.93-4-1.5,0,.16.75.58,1.64,1s1.63.85,1.63,1,.23.33.5.33a.78.78,0,0,1,.68.49c.23.56,2.1.69,2.1.16A.3.3,0,0,0,71.56,93.74Z"/><path class="cls-2" d="M75.79,94.75c-.1,0-.43.1-.72.2a.93.93,0,0,0-.26,1.57,3.74,3.74,0,0,0,1.66-.16l1.38-.4-.95-.62A5.06,5.06,0,0,0,75.79,94.75Z"/><polygon class="cls-3" points="111.69 114.75 103.27 114.75 103.27 106.63 99.73 106.63 99.73 114.75 90.35 114.75 90.35 118.61 99.73 118.61 99.73 139.62 103.27 139.62 103.27 118.61 111.69 118.61 111.69 114.75"/><path class="cls-3" d="M140.85,138.38s-24.1-7.7-37.57-1c0,0,10.13-8.51,37.47-.92,0,0-24.76-13.36-39.24.56-14.49-13.92-39.25-.56-39.25-.56,27.34-7.59,37.47.92,37.47.92-13.47-6.69-37.57,1-37.57,1l-4.76,4.18a226.21,226.21,0,0,1,37.47-1.24,2.54,2.54,0,0,1,2.63,1.24h8a2.54,2.54,0,0,1,2.63-1.24,226.21,226.21,0,0,1,37.47,1.24Z"/><path class="cls-3" d="M62.4,92.21c.49-.36,3.16,1,3.86,1.27a36.75,36.75,0,0,0,4.51,1.14,36.29,36.29,0,0,0,9.07.57,16.43,16.43,0,0,0,7.08-1.77c3.29-1.83,5.38-5.3,6.44-8.9a47.54,47.54,0,0,0,1.4-18.43.26.26,0,0,1,0-.2c1.08,1.4,1.49,3.79,1.91,5.45a41.75,41.75,0,0,1,1.55,8.94C98.42,86.66,96.82,93,94.84,99c-1.86,5.63-4.08,11.21-7.49,16.07a38.27,38.27,0,0,1-11.24,10.56c-4.28,2.64-8.88,5-14,5.48-1.25,0,8.64-4.4,12.85-8.34s8.53-8.45,8.42-15.32S75.88,98.76,71,97.3C68.34,96.5,63.5,95.17,62.4,92.21Z"/><path class="cls-3" d="M63.28,95.42a.21.21,0,0,1,.28-.28q4.55,1.83,9.08,3.71c3.37,1.42,8,2.77,9.26,6.6a8.12,8.12,0,0,1,.15,3.86c-.81,4.91-3.8,8.11-7.37,11.3A40.11,40.11,0,0,1,62,128.68a25.09,25.09,0,0,1-2.58,1.18.4.4,0,0,1-.11-.78c3.67-1.14,7-3.75,9.81-6.25,3.46-3.08,6.61-6.76,8-11.24a8,8,0,0,0,.39-3.61c-.79-4.78-6.24-6.4-9.79-8.58C66.18,98.46,64,97.14,63.28,95.42Z"/><ellipse class="cls-3" cx="84.52" cy="86.51" rx="5.46" ry="5.92"/><path class="cls-3" d="M140.61,92.21c-.49-.36-3.16,1-3.86,1.27a36.75,36.75,0,0,1-4.51,1.14,36.29,36.29,0,0,1-9.07.57,16.43,16.43,0,0,1-7.08-1.77c-3.29-1.83-5.38-5.3-6.44-8.9a47.54,47.54,0,0,1-1.4-18.43.26.26,0,0,0,0-.2c-1.08,1.4-1.49,3.79-1.91,5.45a41.75,41.75,0,0,0-1.55,8.94c-.18,6.38,1.42,12.69,3.4,18.71,1.86,5.63,4.08,11.21,7.49,16.07a38.27,38.27,0,0,0,11.24,10.56c4.28,2.64,8.88,5,14,5.48,1.25,0-8.64-4.4-12.85-8.34s-8.53-8.45-8.42-15.32,7.51-8.68,12.4-10.14C134.67,96.5,139.51,95.17,140.61,92.21Z"/><path class="cls-3" d="M139.73,95.42a.21.21,0,0,0-.28-.28q-4.55,1.83-9.08,3.71c-3.37,1.42-8,2.77-9.26,6.6a8.12,8.12,0,0,0-.15,3.86c.81,4.91,3.8,8.11,7.37,11.3A40.18,40.18,0,0,0,141,128.68a26.07,26.07,0,0,0,2.59,1.18.4.4,0,0,0,.11-.78c-3.67-1.14-7-3.75-9.81-6.25-3.46-3.08-6.61-6.76-8-11.24a8,8,0,0,1-.39-3.61c.79-4.78,6.24-6.4,9.79-8.58C136.83,98.46,139,97.14,139.73,95.42Z"/><ellipse class="cls-3" cx="118.49" cy="86.51" rx="5.46" ry="5.92"/><path class="cls-3" d="M102.87,66.69c0-.56,1-1.73,1.35-2.27a51.22,51.22,0,0,0,3.81-7,10.69,10.69,0,0,0,.54-6.69,21.41,21.41,0,0,0-2.06-4.29,30.8,30.8,0,0,1-2.3-5.46c-.43-1.39-1.4-3.72-.75-5.15,0-.08.07-.15,0-.2-1.08.92-1.46,2.88-1.52,4.2a11.62,11.62,0,0,0,1.52,5.81c.88,1.72,1.94,3.05,2,5.08.09,1.88-.1,4.39-1.5,5.81s-2.5.48-3.53-.75a7.3,7.3,0,0,1-1.93-6.39c.18-1.84.43-5.43-.09-6.13-.87-1.16-.81.06-.85.84a19.52,19.52,0,0,1-.52,3.21,20.88,20.88,0,0,0-.89,6.42A4.11,4.11,0,0,0,97,56a7,7,0,0,0,1.15,1A12.74,12.74,0,0,1,102.87,66.69Z"/><path class="cls-3" d="M100.72,39.15c-1.54,2.94-1.14,6.62-.79,9.8a12.57,12.57,0,0,0,.82,4.09c.31.66,1.16,2.63,2.07,2.63.74,0,1.7-1.66,1.44-3.85s-1.36-4-2.15-6A26,26,0,0,1,100.72,39.15Z"/><path class="cls-3" d="M94,49.81s-1.84,5.16,1.88,7.7A13.31,13.31,0,0,1,100.69,63c1.23,2.82-.12,5.17.18,8a13.3,13.3,0,0,0-2.66-6.83c-1.61-2-4.32-3.31-5.21-5.86C92.3,56.28,92,52.43,94,49.81Z"/><polygon class="cls-1" points="111.69 114.75 103.27 114.75 103.27 106.63 99.73 106.63 99.73 114.75 90.35 114.75 90.35 118.61 99.73 118.61 99.73 139.62 103.27 139.62 103.27 118.61 111.69 118.61 111.69 114.75"/><path class="cls-1" d="M140.85,138.38s-24.1-7.7-37.57-1c0,0,10.13-8.51,37.47-.92,0,0-24.76-13.36-39.24.56-14.49-13.92-39.25-.56-39.25-.56,27.34-7.59,37.47.92,37.47.92-13.47-6.69-37.57,1-37.57,1l-4.76,4.18a226.21,226.21,0,0,1,37.47-1.24,2.54,2.54,0,0,1,2.63,1.24h8a2.54,2.54,0,0,1,2.63-1.24,226.21,226.21,0,0,1,37.47,1.24Z"/><path class="cls-1" d="M62.4,92.21c.49-.36,3.16,1,3.86,1.27a36.75,36.75,0,0,0,4.51,1.14,36.29,36.29,0,0,0,9.07.57,16.43,16.43,0,0,0,7.08-1.77c3.29-1.83,5.38-5.3,6.44-8.9a47.54,47.54,0,0,0,1.4-18.43.26.26,0,0,1,0-.2c1.08,1.4,1.49,3.79,1.91,5.45a41.75,41.75,0,0,1,1.55,8.94C98.42,86.66,96.82,93,94.84,99c-1.86,5.63-4.08,11.21-7.49,16.07a38.27,38.27,0,0,1-11.24,10.56c-4.28,2.64-8.88,5-14,5.48-1.25,0,8.64-4.4,12.85-8.34s8.53-8.45,8.42-15.32S75.88,98.76,71,97.3C68.34,96.5,63.5,95.17,62.4,92.21Z"/><path class="cls-1" d="M63.28,95.42a.21.21,0,0,1,.28-.28q4.55,1.83,9.08,3.71c3.37,1.42,8,2.77,9.26,6.6a8.12,8.12,0,0,1,.15,3.86c-.81,4.91-3.8,8.11-7.37,11.3A40.11,40.11,0,0,1,62,128.68a25.09,25.09,0,0,1-2.58,1.18.4.4,0,0,1-.11-.78c3.67-1.14,7-3.75,9.81-6.25,3.46-3.08,6.61-6.76,8-11.24a8,8,0,0,0,.39-3.61c-.79-4.78-6.24-6.4-9.79-8.58C66.18,98.46,64,97.14,63.28,95.42Z"/><ellipse class="cls-1" cx="84.52" cy="86.51" rx="5.46" ry="5.92"/><path class="cls-1" d="M140.61,92.21c-.49-.36-3.16,1-3.86,1.27a36.75,36.75,0,0,1-4.51,1.14,36.29,36.29,0,0,1-9.07.57,16.43,16.43,0,0,1-7.08-1.77c-3.29-1.83-5.38-5.3-6.44-8.9a47.54,47.54,0,0,1-1.4-18.43.26.26,0,0,0,0-.2c-1.08,1.4-1.49,3.79-1.91,5.45a41.75,41.75,0,0,0-1.55,8.94c-.18,6.38,1.42,12.69,3.4,18.71,1.86,5.63,4.08,11.21,7.49,16.07a38.27,38.27,0,0,0,11.24,10.56c4.28,2.64,8.88,5,14,5.48,1.25,0-8.64-4.4-12.85-8.34s-8.53-8.45-8.42-15.32,7.51-8.68,12.4-10.14C134.67,96.5,139.51,95.17,140.61,92.21Z"/><path class="cls-1" d="M139.73,95.42a.21.21,0,0,0-.28-.28q-4.55,1.83-9.08,3.71c-3.37,1.42-8,2.77-9.26,6.6a8.12,8.12,0,0,0-.15,3.86c.81,4.91,3.8,8.11,7.37,11.3A40.18,40.18,0,0,0,141,128.68a26.07,26.07,0,0,0,2.59,1.18.4.4,0,0,0,.11-.78c-3.67-1.14-7-3.75-9.81-6.25-3.46-3.08-6.61-6.76-8-11.24a8,8,0,0,1-.39-3.61c.79-4.78,6.24-6.4,9.79-8.58C136.83,98.46,139,97.14,139.73,95.42Z"/><ellipse class="cls-1" cx="118.49" cy="86.51" rx="5.46" ry="5.92"/><path class="cls-1" d="M102.87,66.69c0-.56,1-1.73,1.35-2.27a51.22,51.22,0,0,0,3.81-7,10.69,10.69,0,0,0,.54-6.69,21.41,21.41,0,0,0-2.06-4.29,30.8,30.8,0,0,1-2.3-5.46c-.43-1.39-1.4-3.72-.75-5.15,0-.08.07-.15,0-.2-1.08.92-1.46,2.88-1.52,4.2a11.62,11.62,0,0,0,1.52,5.81c.88,1.72,1.94,3.05,2,5.08.09,1.88-.1,4.39-1.5,5.81s-2.5.48-3.53-.75a7.3,7.3,0,0,1-1.93-6.39c.18-1.84.43-5.43-.09-6.13-.87-1.16-.81.06-.85.84a19.52,19.52,0,0,1-.52,3.21,20.88,20.88,0,0,0-.89,6.42A4.11,4.11,0,0,0,97,56a7,7,0,0,0,1.15,1A12.74,12.74,0,0,1,102.87,66.69Z"/><path class="cls-1" d="M100.72,39.15c-1.54,2.94-1.14,6.62-.79,9.8a12.57,12.57,0,0,0,.82,4.09c.31.66,1.16,2.63,2.07,2.63.74,0,1.7-1.66,1.44-3.85s-1.36-4-2.15-6A26,26,0,0,1,100.72,39.15Z"/><path class="cls-1" d="M94,49.81s-1.84,5.16,1.88,7.7A13.31,13.31,0,0,1,100.69,63c1.23,2.82-.12,5.17.18,8a13.3,13.3,0,0,0-2.66-6.83c-1.61-2-4.32-3.31-5.21-5.86C92.3,56.28,92,52.43,94,49.81Z"/><path class="cls-1" d="M32,60.29l-8.47-1.84,0,0,.66.33.88.47c.31.16.62.33.91.5l4.74,2.76L30,63.73l-8.39-4.87L22.63,57l8,1.72,0,0-5.42-6.16,1.06-1.83,8.39,4.87L34,56.83,29.16,54l-.85-.5-.8-.52-.62-.4,0,0,5.74,6.5Z"/><path class="cls-1" d="M37.75,51.47l-2.16,3L34.91,54l.37-1.08-5.93-4.3-.93.67-.68-.49,2.16-3,.68.49-.35,1.09,5.93,4.3.91-.68Z"/><path class="cls-1" d="M43.6,44.52l-1.21,1.4-8.85-1.78,0,0,.46.36.52.41.55.44.57.46,3.89,3.39-.9,1L31.28,43.9l1.21-1.38,8.8,1.76,0,0-.4-.32-.52-.41-.56-.45c-.19-.15-.37-.3-.53-.45l-3.93-3.42.9-1Z"/><path class="cls-1" d="M47.33,41l-2.65,2.55-.58-.61.54-1-5.07-5.28-1,.5L38,36.52,40.62,34l.58.61-.54,1,5.07,5.28,1-.51Z"/><path class="cls-1" d="M50.86,34.53a2.69,2.69,0,0,1,.65,1.39,2.48,2.48,0,0,1-.27,1.44,4.23,4.23,0,0,1-1.16,1.41,8,8,0,0,1-.8.58,5.87,5.87,0,0,1-.76.42,4.3,4.3,0,0,1-.74.25L46.9,39a9.69,9.69,0,0,0,1.24-.46,5,5,0,0,0,1.19-.74A2.44,2.44,0,0,0,50,37a1.36,1.36,0,0,0,.13-.75,1.29,1.29,0,0,0-.32-.69,1.42,1.42,0,0,0-.63-.46,2,2,0,0,0-.85,0,10,10,0,0,0-1.26.33,5.61,5.61,0,0,1-1.33.27,2.53,2.53,0,0,1-1.2-.19,2.84,2.84,0,0,1-1.07-.84,2.36,2.36,0,0,1-.59-1.3A2.5,2.5,0,0,1,43.11,32a3.82,3.82,0,0,1,1-1.25A5.47,5.47,0,0,1,45.32,30a5.82,5.82,0,0,1,1.2-.44l.41,1.23a7.6,7.6,0,0,0-1.07.4,3.82,3.82,0,0,0-.94.59,1.75,1.75,0,0,0-.53.65,1.18,1.18,0,0,0-.1.66,1.16,1.16,0,0,0,.3.62,1.4,1.4,0,0,0,.62.46,1.83,1.83,0,0,0,.82,0,10.17,10.17,0,0,0,1.21-.29,7.49,7.49,0,0,1,1.43-.3,2.37,2.37,0,0,1,1.17.16A2.56,2.56,0,0,1,50.86,34.53Z"/><path class="cls-1" d="M56.4,33.81l-1.23.85-4.81-6.93-2.21,1.54-.72-1,5.63-3.91.72,1-2.19,1.52Z"/><path class="cls-1" d="M64.11,29.13l-4.5,2.57L54.8,23.28l4.49-2.57.62,1.08-3.18,1.82L58.1,26l3-1.71.61,1.08-3,1.7,1.57,2.76L63.48,28Z"/><path class="cls-1" d="M64,18.43a5.16,5.16,0,0,1,1.89-.51,2.32,2.32,0,0,1,1.42.38,3,3,0,0,1,1,1.26,3,3,0,0,1,.29,1.25,2.4,2.4,0,0,1-.25,1,3.46,3.46,0,0,1-.58.82l4.12,2.87-1.56.7-3.59-2.68-1.35.61L67,27.73l-1.37.62-4-8.83Zm.44,1.18L63.5,20l1.37,3,1-.45a2.74,2.74,0,0,0,.93-.62,1.25,1.25,0,0,0,.34-.79,1.85,1.85,0,0,0-.2-.93,1.74,1.74,0,0,0-.57-.76,1.23,1.23,0,0,0-.81-.2A3.25,3.25,0,0,0,64.44,19.61Z"/><path class="cls-1" d="M75.73,24.19l-3.46,1.25L72,24.65l.9-.69L70.4,17.08l-1.14,0L69,16.32l3.46-1.25.29.79-.9.7,2.49,6.89,1.14-.05Z"/><path class="cls-1" d="M83.72,16.9A7.25,7.25,0,0,1,84,19a4.72,4.72,0,0,1-.38,1.73,3.5,3.5,0,0,1-1,1.33,4.53,4.53,0,0,1-1.71.81,4.59,4.59,0,0,1-1.92.13,3.5,3.5,0,0,1-1.55-.64A4.58,4.58,0,0,1,76.23,21a7.42,7.42,0,0,1-.78-1.92,6.81,6.81,0,0,1-.21-2.64,3.91,3.91,0,0,1,.93-2.05,4.36,4.36,0,0,1,2.17-1.21,4.21,4.21,0,0,1,2.44,0,3.78,3.78,0,0,1,1.81,1.32A6.71,6.71,0,0,1,83.72,16.9ZM77,18.67a6.62,6.62,0,0,0,.78,1.87,2.55,2.55,0,0,0,1.18,1,2.47,2.47,0,0,0,1.6.05,2.44,2.44,0,0,0,1.36-.83,2.64,2.64,0,0,0,.51-1.46,6.24,6.24,0,0,0-.24-2,5,5,0,0,0-1.3-2.49,2.26,2.26,0,0,0-2.22-.44,2.37,2.37,0,0,0-1.91,2.29A6.5,6.5,0,0,0,77,18.67Z"/><path class="cls-1" d="M92.8,20.5,89.14,21l-.1-.84,1-.47-.92-7.26L88,12.17l-.1-.83,3.65-.47.1.84-1,.49.92,7.26,1.12.2Z"/><path class="cls-1" d="M101.87,20l-1.85.07-4.76-7.67h-.05c0,.18,0,.38.06.58s0,.43,0,.66l.06.71c0,.24,0,.48.05.72l.19,5.16-1.37.05-.36-9.69,1.84-.07,4.73,7.63h.06c0-.14,0-.31,0-.51s0-.42,0-.66,0-.47,0-.72,0-.47,0-.69l-.19-5.21,1.37,0Z"/><path class="cls-1" d="M107.18,20.33l-1.49-.1.56-8.42-2.68-.18.08-1.26,6.85.46-.09,1.26-2.67-.18Z"/><path class="cls-1" d="M116.12,21.47,111,20.68l1.49-9.58,5.12.79-.2,1.24-3.62-.57-.43,2.74,3.4.53-.19,1.22-3.4-.53-.48,3.14,3.62.57Z"/><path class="cls-1" d="M122.71,13.05a5,5,0,0,1,1.8.78,2.27,2.27,0,0,1,.87,1.18,3,3,0,0,1,0,1.6,2.81,2.81,0,0,1-.55,1.15,2.45,2.45,0,0,1-.84.65,3.64,3.64,0,0,1-1,.28l1.43,4.8-1.66-.42-1.13-4.33-1.43-.36-1,3.8-1.46-.37,2.38-9.4Zm-.38,1.19-1-.25-.81,3.2,1,.26a2.77,2.77,0,0,0,1.11.09,1.23,1.23,0,0,0,.76-.4,2,2,0,0,0,.43-.86,1.81,1.81,0,0,0,0-1,1.19,1.19,0,0,0-.51-.65A3.07,3.07,0,0,0,122.33,14.24Z"/><path class="cls-1" d="M132.56,26.5l-1.73-.65-1.42-8.91,0,0c-.06.17-.11.36-.17.56s-.13.4-.2.62-.15.45-.23.67-.15.46-.23.69l-1.82,4.84-1.28-.49,3.41-9.07,1.72.64L132,24.25l0,0,.15-.49q.09-.29.21-.63c.07-.22.15-.45.23-.68s.15-.45.23-.65l1.83-4.89,1.29.49Z"/><path class="cls-1" d="M139.54,30l.46-2.9-3.08-1.58-2.08,2.07-1.41-.72,7.48-7.11,1.45.74L140.94,30.7Zm1.14-7.06a4.16,4.16,0,0,0,.09-.46c0-.2.08-.41.13-.62s.09-.4.11-.55c-.19.24-.39.48-.59.7s-.36.4-.5.54l-2,2,2.36,1.21Z"/><path class="cls-1" d="M149.47,26a2.53,2.53,0,0,0-1.12-.42,2.37,2.37,0,0,0-1.14.14,3.55,3.55,0,0,0-1.11.7,5.94,5.94,0,0,0-1,1.21,5.52,5.52,0,0,0-.8,1.83,2.62,2.62,0,0,0,.09,1.58,2.57,2.57,0,0,0,1.06,1.22,5.86,5.86,0,0,0,1,.52,10,10,0,0,0,1.09.34l-.69,1.06a5.17,5.17,0,0,1-1.1-.33,7.9,7.9,0,0,1-1.16-.62A4.24,4.24,0,0,1,143,31.48a3.62,3.62,0,0,1-.22-2.22,6.93,6.93,0,0,1,1-2.46,6.75,6.75,0,0,1,1.33-1.54,4.52,4.52,0,0,1,1.56-.88,3.81,3.81,0,0,1,1.71-.12,4.55,4.55,0,0,1,1.77.71,6.79,6.79,0,0,1,1.07.87,4.74,4.74,0,0,1,.78,1l-1.11.74a8.34,8.34,0,0,0-.6-.85A3.63,3.63,0,0,0,149.47,26Z"/><path class="cls-1" d="M150.49,37.33l-2.94-2.23.51-.67,1.07.39L153.56,29l-.65-.94.51-.67,2.93,2.22-.51.67-1.08-.37-4.42,5.83.66.93Z"/><path class="cls-1" d="M160.94,40.06a7.07,7.07,0,0,1-1.58,1.33,4.58,4.58,0,0,1-1.66.63,3.53,3.53,0,0,1-1.67-.14,4.6,4.6,0,0,1-1.61-1,4.53,4.53,0,0,1-1.16-1.54,3.41,3.41,0,0,1-.3-1.65,4.48,4.48,0,0,1,.49-1.7,7.1,7.1,0,0,1,1.18-1.69,6.68,6.68,0,0,1,2.1-1.62,3.91,3.91,0,0,1,2.22-.33,4.34,4.34,0,0,1,2.2,1.16,4.22,4.22,0,0,1,1.33,2,3.79,3.79,0,0,1-.12,2.25A6.68,6.68,0,0,1,160.94,40.06Zm-5.14-4.68a6.19,6.19,0,0,0-1.15,1.67,2.56,2.56,0,0,0-.21,1.54,2.45,2.45,0,0,0,.82,1.37,2.42,2.42,0,0,0,1.44.69,2.61,2.61,0,0,0,1.51-.37A6.06,6.06,0,0,0,159.76,39a5,5,0,0,0,1.38-2.45,2.24,2.24,0,0,0-.84-2.1,2.36,2.36,0,0,0-3-.35A6.06,6.06,0,0,0,155.8,35.38Z"/><path class="cls-1" d="M163.77,50.64l-1.2-1.4,3-8.5,0,0-.42.41-.48.45-.52.48-.53.5L159.7,45.9l-.9-1,7.36-6.32,1.19,1.39-3,8.46,0,0,.37-.35.48-.45.53-.49c.18-.17.35-.32.52-.46l3.95-3.4.89,1Z"/><path class="cls-1" d="M168.22,57l1.8-2.33-2-2.86-2.82.82-.89-1.3,10-2.66.92,1.34-6.14,8.29Zm4.39-5.65c.07-.08.18-.2.3-.36l.41-.49a5.18,5.18,0,0,0,.36-.42c-.29.12-.57.23-.85.32l-.7.24-2.76.8,1.49,2.19Z"/><path class="cls-1" d="M169.55,59.23,178,54.55l.73,1.32-7.38,4.07,1.86,3.38-1.11.61Z"/><path class="cls-1" d="M25,147.75l8.68-5.57.87,1.35L27,148.38l2.22,3.45-1.14.73Z"/><path class="cls-1" d="M31.23,156.78l-2.35-3.13.71-.54,1,.71,6.22-4.68L36.41,148l.71-.54,2.36,3.13-.72.54-1-.7-6.22,4.68.41,1.14Z"/><path class="cls-1" d="M42.3,153.91a7.48,7.48,0,0,1,1.2,1.71,2.35,2.35,0,0,1,.23,1.48,2.52,2.52,0,0,1-.85,1.32,2.58,2.58,0,0,1-.94.56,2,2,0,0,1-1.9-.33l0,0a3.43,3.43,0,0,1,.4,1,1.94,1.94,0,0,1-.09,1.06,2.88,2.88,0,0,1-.81,1.07,2.81,2.81,0,0,1-1.47.75,2.69,2.69,0,0,1-1.54-.21A4.51,4.51,0,0,1,35,161.22l-2.33-2.62,7.69-6.87Zm-5,2.73-2.57,2.29,1.12,1.25a2.09,2.09,0,0,0,1.42.85,1.85,1.85,0,0,0,1.26-.53,1.8,1.8,0,0,0,.52-.73,1.4,1.4,0,0,0,0-.88,3.13,3.13,0,0,0-.67-1Zm2,.28a2.21,2.21,0,0,0,1.29.87,1.57,1.57,0,0,0,1.13-.47,1.23,1.23,0,0,0,.5-1.11,2.83,2.83,0,0,0-.79-1.39l-.91-1-2.23,2Z"/><path class="cls-1" d="M43.22,169.33l-4-3.72,7-7.6,4.06,3.72-.9,1-2.87-2.64-2,2.17,2.69,2.48-.88,1-2.7-2.47-2.28,2.49,2.87,2.64Z"/><path class="cls-1" d="M53.7,164.47a5.55,5.55,0,0,1,1.44,1.5,2.42,2.42,0,0,1,.36,1.51,3.17,3.17,0,0,1-.67,1.57,3,3,0,0,1-1,.9,2.57,2.57,0,0,1-1.08.29,3.71,3.71,0,0,1-1.06-.12l-.58,5.3-1.45-1.09.67-4.72-1.25-1L46.54,172l-1.28-1,6.21-8.25Zm-.87,1-.88-.66-2.11,2.8.91.69a2.88,2.88,0,0,0,1.06.54,1.31,1.31,0,0,0,.9-.07,2.09,2.09,0,0,0,.78-.67,1.79,1.79,0,0,0,.41-.93,1.3,1.3,0,0,0-.22-.85A3.78,3.78,0,0,0,52.83,165.48Z"/><path class="cls-1" d="M55.68,178.23l-1.36-.82L59,169.74l-2.44-1.49.7-1.14,6.23,3.79-.7,1.15-2.43-1.48Z"/><path class="cls-1" d="M64.49,182.88l.44-3.1-3.31-1.62-2.18,2.24-1.5-.74,7.82-7.7,1.56.77L66,183.62Zm1.09-7.53c0-.12,0-.28.09-.49s.08-.44.12-.67.09-.42.11-.58c-.2.26-.41.51-.61.75l-.53.59-2.13,2.19,2.52,1.24Z"/><path class="cls-1" d="M77.06,182.05a6.1,6.1,0,0,1-1.55,2.53,4,4,0,0,1-2.25,1.07,5.86,5.86,0,0,1-2.79-.36l-2.61-.93,3.45-9.72,2.89,1a5.45,5.45,0,0,1,2.23,1.41,4,4,0,0,1,1,2.16A5.82,5.82,0,0,1,77.06,182.05Zm-1.59-.52a5.24,5.24,0,0,0,.36-2.14,2.54,2.54,0,0,0-.62-1.54,3.6,3.6,0,0,0-1.55-1l-1.28-.46-2.57,7.25,1,.37a3.35,3.35,0,0,0,2.82,0A4.27,4.27,0,0,0,75.47,181.53Z"/><path class="cls-1" d="M87,189.65l-5.4-1.05,2-10.13L89,179.52l-.26,1.31-3.83-.75-.56,2.9,3.59.7L87.69,185l-3.59-.7-.64,3.32,3.83.74Z"/><path class="cls-1" d="M97.82,190.74l-2-.16-4.06-8.7h-.06c0,.19,0,.4,0,.62s0,.46,0,.7l0,.76c0,.25,0,.51,0,.77l-.44,5.47-1.46-.12.84-10.28,1.94.16,4,8.65h.06c0-.14,0-.32,0-.54s0-.45,0-.7l0-.76c0-.26,0-.51,0-.74l.46-5.53,1.45.12Z"/><path class="cls-1" d="M108.34,181.28a2.68,2.68,0,0,0-1.22.36,2.55,2.55,0,0,0-.88.85,3.67,3.67,0,0,0-.49,1.3,6,6,0,0,0-.08,1.67,5.83,5.83,0,0,0,.49,2.07,2.82,2.82,0,0,0,1.1,1.29,2.76,2.76,0,0,0,1.68.35,5.79,5.79,0,0,0,1.2-.21,11.21,11.21,0,0,0,1.14-.41l.1,1.34a6.11,6.11,0,0,1-1.15.42,7.12,7.12,0,0,1-1.38.22,4.55,4.55,0,0,1-2.54-.46,3.87,3.87,0,0,1-1.6-1.74,8,8,0,0,1-.56-4.92,4.87,4.87,0,0,1,.77-1.75,3.84,3.84,0,0,1,1.37-1.19,4.93,4.93,0,0,1,2-.54,7.17,7.17,0,0,1,1.46.06,5.17,5.17,0,0,1,1.33.37l-.47,1.34a7.75,7.75,0,0,0-1.06-.33A3.81,3.81,0,0,0,108.34,181.28Z"/><path class="cls-1" d="M115,179.17a5.45,5.45,0,0,1,2.08,0,2.36,2.36,0,0,1,1.36.76,3.13,3.13,0,0,1,.69,1.55,3,3,0,0,1,0,1.37,2.63,2.63,0,0,1-.53,1,4.1,4.1,0,0,1-.8.7l3.5,4-1.79.33-3-3.7-1.55.28.74,4.11-1.58.29-1.84-10.15Zm.15,1.32-1.08.2.63,3.45,1.13-.2a2.83,2.83,0,0,0,1.11-.41,1.35,1.35,0,0,0,.56-.72,2.14,2.14,0,0,0,0-1,2,2,0,0,0-.4-.93,1.29,1.29,0,0,0-.78-.41A3.61,3.61,0,0,0,115.15,180.49Z"/><path class="cls-1" d="M126.16,187.15l-3.78,1-.23-.87,1-.64-2-7.53-1.22-.06-.23-.86,3.78-1,.24.86-1,.67,2,7.52,1.21,0Z"/><path class="cls-1" d="M132.74,182a2.78,2.78,0,0,1,.13,1.62,2.67,2.67,0,0,1-.8,1.35,4.51,4.51,0,0,1-1.68,1,8.13,8.13,0,0,1-1,.29,8.46,8.46,0,0,1-.92.13,4.45,4.45,0,0,1-.82,0l-.49-1.39a9.24,9.24,0,0,0,1.4,0,5.9,5.9,0,0,0,1.47-.3,2.43,2.43,0,0,0,.92-.53,1.37,1.37,0,0,0,.42-.69,1.52,1.52,0,0,0-.07-.81,1.37,1.37,0,0,0-.46-.68,1.92,1.92,0,0,0-.84-.35,9.08,9.08,0,0,0-1.38-.14,5.71,5.71,0,0,1-1.42-.22,2.75,2.75,0,0,1-1.13-.64,3,3,0,0,1-.76-1.23,2.56,2.56,0,0,1-.1-1.51,2.61,2.61,0,0,1,.75-1.26,4.22,4.22,0,0,1,1.49-.87,6.39,6.39,0,0,1,1.46-.34,6.17,6.17,0,0,1,1.36,0l0,1.38a8.14,8.14,0,0,0-1.21,0,3.87,3.87,0,0,0-1.16.24,1.87,1.87,0,0,0-.76.45,1.25,1.25,0,0,0-.35.63,1.29,1.29,0,0,0,.07.72,1.44,1.44,0,0,0,.45.69,2,2,0,0,0,.81.33,10.88,10.88,0,0,0,1.31.16,8.82,8.82,0,0,1,1.54.23,2.58,2.58,0,0,1,1.11.59A2.89,2.89,0,0,1,132.74,182Z"/><path class="cls-1" d="M139,182.26l-1.45.66-3.75-8.15-2.6,1.2-.57-1.22,6.63-3.06.56,1.22-2.58,1.2Z"/><path class="cls-1" d="M148,171.34a7,7,0,0,1,.87,2,4.89,4.89,0,0,1,.14,1.88,3.68,3.68,0,0,1-.66,1.66,5.43,5.43,0,0,1-3.43,2.05,3.64,3.64,0,0,1-1.77-.2,4.76,4.76,0,0,1-1.58-1,7.86,7.86,0,0,1-1.37-1.73,7.2,7.2,0,0,1-1-2.64,4,4,0,0,1,.35-2.36,5.14,5.14,0,0,1,4.34-2.61,4,4,0,0,1,2.24.81A7.08,7.08,0,0,1,148,171.34Zm-6.34,3.8a7.07,7.07,0,0,0,1.35,1.68,2.74,2.74,0,0,0,1.51.69,3,3,0,0,0,2.79-1.67,2.85,2.85,0,0,0,.09-1.65,6.82,6.82,0,0,0-.85-2,5.34,5.34,0,0,0-2.07-2.16,2.4,2.4,0,0,0-2.39.22,2.66,2.66,0,0,0-1.16,1.25,2.69,2.69,0,0,0-.11,1.65A6.57,6.57,0,0,0,141.65,175.14Z"/><path class="cls-1" d="M156.61,174.88a4.16,4.16,0,0,1-.53.36,3.23,3.23,0,0,1-.46.19l-.81-1a4.11,4.11,0,0,0,.42-.21,3.7,3.7,0,0,0,.44-.29,1.38,1.38,0,0,0,.42-.52,1.05,1.05,0,0,0,0-.69,2.62,2.62,0,0,0-.53-.94l-6.27-7.89,1.25-1,6.24,7.84a4.07,4.07,0,0,1,.83,1.61,2.24,2.24,0,0,1-.12,1.41A2.92,2.92,0,0,1,156.61,174.88Z"/><path class="cls-1" d="M163.31,165.39l-4.06,3.72-7-7.61,4.06-3.72.9,1-2.88,2.64,2,2.17,2.7-2.47.88,1-2.69,2.47,2.28,2.5,2.88-2.64Z"/><path class="cls-1" d="M166.89,157.47a2.83,2.83,0,0,1,.88,1.37,2.7,2.7,0,0,1-.07,1.56,4.53,4.53,0,0,1-1,1.65,10.19,10.19,0,0,1-.75.73,6.46,6.46,0,0,1-.75.55,5.1,5.1,0,0,1-.73.38l-1.09-1a7.9,7.9,0,0,0,1.23-.66,5.4,5.4,0,0,0,1.16-1,2.5,2.5,0,0,0,.56-.9,1.34,1.34,0,0,0,0-.81,1.64,1.64,0,0,0-1.17-1.07,2,2,0,0,0-.91.1A7.75,7.75,0,0,0,163,159a6,6,0,0,1-1.37.47,2.68,2.68,0,0,1-1.29,0,3.07,3.07,0,0,1-1.25-.73,2.59,2.59,0,0,1-.81-1.28,2.65,2.65,0,0,1,.07-1.47,4,4,0,0,1,.9-1.46,6.49,6.49,0,0,1,1.13-1,7,7,0,0,1,1.2-.64l.61,1.24a7.85,7.85,0,0,0-1.07.58,4.38,4.38,0,0,0-.91.75,2.1,2.1,0,0,0-.46.77,1.23,1.23,0,0,0,0,.71,1.25,1.25,0,0,0,.4.61,1.36,1.36,0,0,0,.72.39,2,2,0,0,0,.87-.09,10.72,10.72,0,0,0,1.23-.48,7.94,7.94,0,0,1,1.47-.52,2.52,2.52,0,0,1,1.25,0A2.79,2.79,0,0,1,166.89,157.47Z"/><path class="cls-1" d="M172.15,149.11a4.22,4.22,0,0,1,1.3,1.48,3.09,3.09,0,0,1,.33,1.85,4.19,4.19,0,0,1-.88,2,3.67,3.67,0,0,1-2.52,1.67,3.89,3.89,0,0,1-2.81-.85l-5.36-3.93.95-1.3,5.3,3.9a2.82,2.82,0,0,0,1.88.67,2.16,2.16,0,0,0,1.53-1,2.32,2.32,0,0,0,.5-1.22,1.84,1.84,0,0,0-.3-1.1,3.58,3.58,0,0,0-1-1l-5.29-3.88,1-1.29Z"/><path class="cls-1" d="M177.16,142.33a2.87,2.87,0,0,1,1.16,1.16,2.73,2.73,0,0,1,.26,1.54,4.67,4.67,0,0,1-.65,1.82,8.42,8.42,0,0,1-.59.88,6.1,6.1,0,0,1-.61.69,4.5,4.5,0,0,1-.64.53l-1.27-.74a10.21,10.21,0,0,0,1.07-.91,5.15,5.15,0,0,0,.92-1.18,2.42,2.42,0,0,0,.37-1,1.34,1.34,0,0,0-.71-1.37,1.45,1.45,0,0,0-.8-.22,2.1,2.1,0,0,0-.86.28,8.9,8.9,0,0,0-1.14.79,5.8,5.8,0,0,1-1.23.75,2.83,2.83,0,0,1-1.27.25,3,3,0,0,1-1.38-.45,2.5,2.5,0,0,1-1.3-2.53,4.21,4.21,0,0,1,.57-1.62,6.45,6.45,0,0,1,.9-1.21,6.56,6.56,0,0,1,1-.88l.85,1.08a10,10,0,0,0-.92.79,4.34,4.34,0,0,0-.73.93,2.06,2.06,0,0,0-.29.84,1.25,1.25,0,0,0,.15.7,1.37,1.37,0,0,0,.52.52,1.44,1.44,0,0,0,.79.22,1.87,1.87,0,0,0,.83-.27,9.35,9.35,0,0,0,1.1-.73,8.39,8.39,0,0,1,1.32-.82,2.74,2.74,0,0,1,1.23-.27A2.88,2.88,0,0,1,177.16,142.33Z"/><path class="cls-1" d="M185.87,107.72l-1.94-3.35h-3.87L182,101l-1.94-3.35h3.87l1.94-3.36,1.94,3.36h3.87L189.74,101l1.94,3.35h-3.87Zm-1.11-3.35,1.11,1.92,1.11-1.92Zm3.46-.72h2.21l-1.1-1.91Zm-3.87,0h3l1.52-2.63-1.52-2.63h-3L182.83,101Zm-3,0h2.21l-1.11-1.91Zm6.91-5.26,1.11,1.91,1.1-1.91Zm-6.91,0,1.1,1.91,1.11-1.91Zm3.45-.72H187l-1.11-1.92Z"/><path class="cls-1" d="M16.33,107.72l-1.93-3.35H10.53L12.46,101l-1.93-3.35H14.4l1.93-3.36,1.94,3.36h3.87L20.2,101l1.94,3.35H18.27Zm-1.1-3.35,1.1,1.92,1.11-1.92Zm3.45-.72h2.21l-1.1-1.91Zm-3.87,0h3L19.37,101l-1.52-2.63h-3L13.29,101Zm-3,0H14l-1.1-1.91Zm6.91-5.26,1.11,1.91,1.1-1.91Zm-6.91,0,1.11,1.91L14,98.39Zm3.46-.72h2.21l-1.11-1.92Z"/></g></g></svg>