<svg xmlns="http://www.w3.org/2000/svg" viewBox="0 0 57.38 76.49"><defs><style>.cls-1{fill:#e5e5e5;}</style></defs><g id="Capa_2" data-name="Capa 2"><g id="Capa_1-2" data-name="Capa 1"><path class="cls-1" d="M56.56,22.17a33.08,33.08,0,0,0-3.48-8.49,26.63,26.63,0,0,0-5.44-6.57,28.06,28.06,0,0,0-7.37-4.57,34.69,34.69,0,0,0-4-1.44A25.12,25.12,0,0,0,30,0a29.86,29.86,0,0,0-6.4.46c-1.18.21-2.31.54-3.46.86a31,31,0,0,0-5.52,2.39L14.12,4A28.63,28.63,0,0,0,.65,34.59,54.79,54.79,0,0,0,7.52,50.83,130.83,130.83,0,0,0,27.67,76c.74.73,1.3.7,2.11-.1A140.17,140.17,0,0,0,44.4,59,80.35,80.35,0,0,0,54.72,41C57.14,34.89,58.27,28.63,56.56,22.17ZM28.72,41.83A13.14,13.14,0,1,1,41.81,28.71,13.16,13.16,0,0,1,28.72,41.83Z"/></g></g></svg>