<svg xmlns="http://www.w3.org/2000/svg" viewBox="0 0 496.84 360.37"><defs><style>.cls-1{fill:#fca311;}.cls-2{fill:#fff;}</style></defs><g id="Capa_2" data-name="Capa 2"><g id="Capa_1-2" data-name="Capa 1"><polygon class="cls-1" points="179.59 80.58 177.13 82.62 175.91 83.03 175.09 83.85 172.63 84.67 171 85.49 169.36 86.31 168.95 86.71 166.91 87.94 166.09 88.35 164.45 88.76 164.04 89.17 163.22 89.17 161.59 88.35 160.36 87.53 160.36 87.94 161.59 88.76 162.41 89.58 162.41 89.99 163.22 89.58 167.72 88.35 171.41 85.9 173.04 85.08 174.27 84.67 175.91 84.26 177.13 83.44 177.95 83.03 180.4 80.58 181.63 79.35 181.63 78.94 180.4 80.17 179.59 80.58"/><polygon class="cls-1" points="161.18 84.67 160.77 84.26 160.36 83.85 159.13 83.44 158.31 83.85 157.91 83.85 157.09 84.26 156.27 83.85 155.45 83.85 154.22 83.85 153.41 83.85 153.41 84.26 153.82 84.26 154.63 84.67 155.45 85.08 156.68 85.9 157.5 86.71 158.72 87.12 159.95 87.12 160.36 85.9 161.18 84.67"/><polygon class="cls-1" points="282.67 188.57 282.67 188.16 282.67 187.75 282.26 186.93 282.26 186.52 282.67 186.52 282.67 184.89 282.67 183.66 282.26 182.84 282.26 182.02 281.85 182.02 281.44 182.84 281.85 183.25 282.26 183.66 282.26 184.48 282.26 185.29 281.85 185.7 281.85 186.11 281.85 187.75 281.85 188.57 281.85 188.98 282.26 189.39 282.67 188.98 282.67 188.57"/><polygon class="cls-1" points="288.8 215.97 288.39 215.97 287.58 215.56 287.17 215.16 286.76 215.16 286.76 215.56 287.17 215.97 287.58 216.38 287.99 216.79 288.39 217.61 288.8 217.61 288.8 216.38 288.8 215.97"/><path class="cls-1" d="M436.47,255.65l-.41-1.63-.41-1.23-.4-1.23v-.82l-.41-1.22-.41-.41v-1.23H434v-.82l-.41-.82-.41-2-.41-.82-1.23-2.86v-.82l-.81-.41v-.82l-.41-.41v-.41h-.41v-.4l-.41-1.64-.82-1.23h.41V234l-.41-.82v-.4l-.41-1.23h-.41l-.82-2.05h-.4v-.82L425,225l-.82-1.22-.82-2.05-.82-2.45L421.34,216l-.41-1.63h-.41l-.82-1.64-.41-1.63-.41-.82-.41-1.64v-.41l-.4-.41-.41-.41V207l-.41-.41v-1.64l-.41-.41-.41-.82v-.82l-.41-1.22-.41-1.23-.41-.41v-.82l-.41-.41v-.4l-1.63-2.87-1.64-2.86-3.27-6.55h-.41v-.41l-1.23-2v-.82l-.41-.41-.41-.82v-.41l-.41-.4v-.41l-.4-.82-.41-.82v-.41l-.41-.82-.41-1.63v-.82l-.41-.41v-1.23l-.41-.41v-1.63l-.82-2.87v-1.63l-.41-1.64.41-.41v-3.68l.41-.82v-.81l.41-.41.41-.82.82-.82,1.22-.41.82-.41v-.41l-.82-1.22-.4-.82-.82-2.46-.41-1.63v-.41l-.82-1.23-.41-.41-1.23-1.63-.41-.82-2-2.46-.82-1.63-.41-.41-2-2.46v-.41l-.41-.4-.82-1.64-3.27-4.91v-.41l-.82-1.23-2.45-3.27-1.23-2-.41-.82v-.41l-.41-.41-.41-.82-.41-.41v-.41l-.41-1.22h-.41l-.41-.41L382.07,117l-.41-.41-.41-.81v-.82h-.41v-.41l-.41-.82-.41-.82-.41-.41v-.81l-.4-.41-.41-.82-.41-.82v-.41l-.82-1.63-.82-1.23v-.82l-.41-.41v-.41l-.41-.41v-.41l-.41-.4-2-4.5-.41-.82-1.23-2.87v-.4l-.41-.82L371,92.85l-.4-.82-.82-1.63L369,88.35l-.41-.82-.41-1.63-.41-.82-.41-1.23-.41-.41V83l-.41-1.22-.4-.41v-.82l-.82-1.64-.82-1.63V76.08l-.41-2-.41-2V70.35l-.41-1.23-.82-.4v-.41l-.4-.82-.41-1.23L361.21,65,360,58.9l-1.64-5.73-.41-2.86-.81-2.46-.41-1.22V45.4l-.41-.82V43.35l-.41-.81V38.85l-.41-1.63-.41-3.68-.82-.82h-.81l-.41-.41.41-.41.4-.41v-.41l-.4-.41V28.22L353,26.58l.41-.41v-2l.4-1.64v-2l-.4-.41-.41-.41-.41.41-.41-.41h-.82l-.41-.82h-.41l-.82.41h-1.63v.41h-1.64v-.41h-1.23l-.41-.41h-.4v.41h-.82V18.4l-.41.41H342V18h-.82v.41h-.41l-.81-.41v-.41l-.82.41h-1.23v-.41l-.82-.4v-.41h-.41l-.41-.41h-.81v.41l-.41-.41V16l-.41-.41h-.41l-.41-.41-1.23.41h-.41l-.4-.41h-1.23l-.41-.41-.82-.82v-.41h-.82v.41h-.82l-.4-.41h-.41v-.41h-.41l-.82.41v1.64l-.41.82v.41h-.41l-.41-.41H324l-.41-.41h-1.22V16l.41.41.41.82-.41.4-.41.41h-.82v1.64l.41.41v.82l-.41.81-.41.82v1.23l.41.41.41.41v.82l.41.41V27h.82v.41l.4.82v1.23l-.4.81v4.5l-.41.41V36.4l-.41.41v1.64h-.41v1.22l.41.82v.41l-.41.41-.41.41-.41.41h-2.05v-.41h-2.45l-.82.41H315l-.4-.41v-.41h-.41V40.9l-.41-.82-.41-.41L312.94,38v-.41l.41-.41V36h-.41l.41-.41V34l-.41-.41-.41-.41h-.41v-.41l-.41-.41h.41l-.41-.41V30.26l.41-.4.41-.41L310.89,29h-2l-4.5-.41h-4.5l-3.68-.41h-2.05l-6.54-.41h-.41l-9.41-.41L274.49,27l-6.14-.41h-6.13l-.82-.41-6.55-.4h-4.09l-2-.41H243L238.9,25h-3.27l-7-.82H225l-6.54-.41h-2.87l-.81-.41h-4.09l-5.32-.41h-1.64l-4.91-.41H193.9L191,22.08h-.82L187,21.67h-3.27l-3.27-.4h-3.28l-2.45-.41H173v-.41l-.41-.41-.4-.41v-.41l-.82-.82h-.82v-.82h-.41l.41-.4v-.41l-.41-.82h-.41V14.31h-.41l.41-.41V11.45h-.41V11l.41-.41-.41-.41L169,9.4h-.41V9l-.41-.81h-.4V7.36h-.41V5.31h-.41V4.9h-.82V3.27h-2.86l-2.87-.41H114.14l-2-.41H99L98.6,2H85.51l-1.23-.41H74.87l-2-.41H65.46L61.78.81H55.65L55.24.4V.81L54.42.4H42.15L39.28,0h-9V.4l.41.41-.41.41h.41V2.45l-.41.82-.4.41-.41.41V4.9l-.41.41v.41h-.41v.82L28.24,7V8.18h.41v.41h-.41V9h.41l.41.41v.41h.41v.41h.41V11h.81l.41.41v.41h.41v.41l.41.41h.41l.41.81h-.41v.41h.41v.41h.41v1.23l.41.41.81.41v.41h.41v.41h.82l.41.4V18h.41v.41h.82l.41.41h.41v.41h.41v.41h.81l.41.41v1.23h.41v2.86h-.41v.41h-.41v1.63h-.41v.41l-.4.41-.41.41-.41.41L37.24,29v.82h-.41l.41.4h.41l.41.82-.41.41v.82h.41v.41l.41.82h.81V34h.41v-.41l.82.41h.41v.41l.41.4h-.41v.41l-.82.41-.41.41h-.41v.41H37.65v.41l-.41.41V38l-.41.41h-.41v1.63l-.41.41v.41H34l-.41.41v1.23H36v-.41h.41V43l-2.86.4v.41h-.82v.41l5.32-.82,1.63-.4,2.05-.82h2.45l.41-.41.82.41h4.5l1.63-.41H52l2.46-.41,10.22-1.64h.41l1.23-.41h1.23l.82-.41h2.45l2.45-.4h6.55l5.32.81h.82l.4.41,2.05-.41,2.86.41h.41l.41.41h2l2.45.82h.82l3.68,1.23h.41l.41.41L108.41,45l4.09,2h.82l3.68,2,.41.41.82.41h.41l.82.82h.41l.81.82.82.4.41.41.82.41.41.41.82.41.41.41.41.41.81.82H126v.41l.82.81v.41h.41l1.64,1.23,1.63.82.41.41.82.41h.41l.82.41.41.4h1.22v1.23l.41.41.41.41.41.82.82.82h.41v.41l1.63,1.22.82.82h1.64l.82.41h.81v.41l1.23.41v.41l.82.81h.41v.41l.41.41.41.41.81,1.64.82,1.63.41.41h.41l.41.41v1.23l.41.41v2L148.91,83l-.41.41h-1.64l-.41.41-.4-.82-.82-.82-.82-3.27L144,76.49V74.85l.41-2,.41-.41H144l-.41.82-.41.81v.82l.41,1.64.82,3.68V81l.41.41.41,1.22.41,1.23.81,1.23.41.41V84.26l1.64-.41h2.86l2-.82h2.45l1.23-.82,1.64-.4h2.86l1.64.4h2.45l.82-.4.41-.41.41-.82.81-.41.41-.41,1.23-1.23v-.41l.82-.41H171l.41.41.41.41v.41l-.41.82L170.59,81l.41.82h.41l.41-.82.41-.41h.4l.82-.82h.41l.82-.41L178,77.71h.41l1.23-1.22,2-1.23h1.64l.82-.82V74l2-1.22.41-.41,1.23-.82h.41l.82-.41.41-.41.81-.41,1.23-.41h.82l1.23-.41,1.22-.41.41.82.41.82h1.64l1.22.82h.41l1.23-.41h.41l.41-.82v-2h-.41v-2l-.41-.41h-.41l-.41-.41V63l.41-1.64H200l.41-.41,1.64-.41v.41l.81.41h.82l.41-.82V58.9l.82-.41,1.23,1.23h2.45l.41.81h1.23l.82-.4.4-.41.41-.41.82.41.41-.41h1.23l.41-.41h.41l.81-.41h1.64l.82.41.41.82h.41v.41h.41l.4.4h.41l.41.41.41.41.82.82v.41L223,63h.41v.41h.41l.81.41.41.41,1.64.81H227v.41h.41v.41h.41l.81.41h1.23l.41.41.82.82h.41l1.22.82.82.41H234l1.23.81.41.41.82.82v.41h.41l.81.82.41.82v.41l.41.4.41.82.82.41.41.82.41.82.41,1.22-.41.41v.41l.41.41v.41l.81.41.41.82.41.82.41.41h.41l.82.4h.41l.41.41h.41V83l.4.41.41.41,1.23.82h1.23l.82.41h.4V86.3l.41.41v7.78l1.23.41v.4l.41.41h.82l.41.41.82.82h1.22v.41l.41.82.41.82v.4h.41l.82.41.41-.41,1.22.41h.82l.82.82.41,1.23.41,1.23.41.81.82.82v2.87l.4.81h1.23l.82.41v.41l1.23.41h.82l.81.82v.41l-.81,2,.81,1.23.41.82.41.41v.41l-.41.41v.4l.82.41v1.23l.82-.41h.82l.41-.41V117l1.22-1.63v-.41h.41v.41h.41v.41h3.27l1.64.41h3.27l1.23.81v2.46h-.41l-.82.41.41,1.63h2v.41l1.22.82.41,1.64-.41,1.22-.41.41.41.41,1.23-.41v1.64l.41.82.41.41.82.81v.41l.41.82.4.82.82.41h1.23l.41.41v.41l.41.41-.41,1.22.41.82-.41.41-.41.41v1.64l.41.4.41.41v.41l-.41,1.23v1.23l-.82.41.41.41V144l.41.41-.41,1.64v2.86l-.41,1.23.41.82v1.22l-.41.82v.41l.41.41-.41.82v.81l-.41.41v.41h.41v1.23l-.41.82v.41l-.41.41.41.81v.41h-.41v.41l-.82.41-.4.82v2.86l-.41.41v.82h-.41l-.41,1.23-.41,1.22.41.82h-.41v.41l-.41,1.23-.41.41h-.41v.82h-.41v1.22l.41.41-.41.41h-.41l-.4.82-.82.41v.41l-.41.41v1.22l.41.41h.41l.41.41v5.73l-.41.82v2.45l-.41.41V189l-.41.41v.41l-.41,1.63-.41.41v.41l-.41.41h-.41l.41-1.23V191l.41-1.22v-.41h-.41l-.41,1.63-.41.82v4.09l.41.41v.82l1.23,1.23.41.81.82.41h.41V200l.4.41.41.82.41.41.41.82v.4h.41v.41h.41v.41l.41.41v6.14l.41.41,1.22-.82.41-.82-.41-.41h-.4v-.41l-.41-.82v-1.63h.41v-.41h1.22l.82.41v-.82h.41l.41.41h.82l.82-.82v-.41l.4-.41v-1.22l-.4-.41.4-.82v-.82l.41-.41.41-.82.41-.41.82-.81v-.41l-.41-.41v-.82l-.41-.82h1.64v-1.63l-2.05.81-1.63-1.63.41-.41-2.46-.41H290l-.41-.82H288.4L288,191v-.41l-.41-.41.41-.4v-.41h.41l3.27-.41h1.63l1.64-.41,1.64.41H297v.41l.81.81V191h.41v1.64l-.41.41v.82l.41.4v.41l-.41.41H297v1.23l.81.41,1.64.82h1.23l.82.41v-1.64l-.41-.41-.41-.82v-1.63l-.41-.82v-.82l.82-.41.81.41v.41h.41l.41.41h2.05l.41,1.23.41,1.63v1.64l-.41,1.23h-.41l-.41.4v.82l-.82.82v.82l-1.23.82-1.22.41.41.4v.82l-.41.41h-.82l-.82.82-1.23,2L297,208.61V209l-.41,1.23-.41.41-.41.81-.82.41-.82.41v.82l-1.22,1.23-.41.41-.41.82v.4h-.82l-.41.41-.82.41v.82H288.8v.82l.41.41v.41l.82,1.63v.41l.82.82.82,1.23.82.82,1.22,1.63.41.41.82,1.23.41.41.82,1.22.41.82v1.23H297v.41h.4l.41.41.41.41v.41l.41.4,1.23,2,.41,1.23.41.41,1.22,2.45.41,1.64.41.81.41.41v1.23l.41.82,1.64,2.45.82,2,1.63,2.45.41.41.82,1.64.41.82.41.41,2,2.86.82.82.41,1.22.41,1.23.41.41v3.27l.41.41.41-2,.4-1.23.41-.41h.41l.41.41h2.46l.4-.41.82-.41h.41l-.41-4.09L318.67,254v-1.23l.4-.41.41-.41h1.23l.82-1.23.41-.41.41-.4H324l.82.4v1.23l-.41.41h-.82l-.4.41v2.05l1.63.4h.41v6.55l-.41.82V263l-.41,1.22-.41.41v.82l-.41,1.23v1.22h-.81v-.41l-.82-1.22v-.41h-.82l-.41-.41h-1.23l-.41.41h-.4v1.23l1.22,1.22h.41v.41l.41.41.41.41v1.23l.41.82v.81l.41.41v1.23l.41,1.23.41,1.63V279h.81l.41-.41h.82v-.82l.41-.82h.41l.82-.41.82.41.81.41V279l.82-.41,1.64.82v.82h.41l.41.4.81.41.82.41.82.82.41.41v.41l.82.82,1.22,1.22.41.82v.82l.82,1.23.82,2v.82l.41,1.64v.41l.41.81v1.64l.41,1.23v2h.41v1.64l.41,2v.82l2,4.5.41.41h.41v2.46l.41.4.41.41.41.82v1.64h.81v.41l1.64,2.45V317h.41v.41l.41-.82v-.82l.41-.41V315l.41-.81H351l1.64.41H353l2-.82h1.64v.82h2v.4l.82.41.82.41h.82l.41-.41.41.41,1.22.82,1.64,1.64h.82v.41l.41.81v.41l.4.41-.4.41-.82.41v.41l.82.82v2l.81.41v-.41l2.46,2.05.82,1.23.41.4.81,1.23.82,1.23v1.23l.41.4V333l.41,1.23.82.41.41.41v.41l-.41,1.22.41.41.81,1.23.82.82.41.41,1.23,3.68v1.23H378l.82.41.41.4.4.82v.82l-.4.41-.41-.41h-.41l-.41.82-.41.41.41.41-.41.82-.41.4v1.64l-.41.82v2.45l.82.41.41.82.41.82v1.23l.41.4h.81l1.64,1.64.82.41h.41l1.22-.41,1.64-.41.41.41h.82l1.63-.82h1.64l1.23-.41h.82l.4-.41-.4-.4v-.41l1.63-.82h2.05l.41.41v.41h.41l.4-.41,1.23-.41,2.05.41h.41v.82l.4.4h1.64l.41.41.41-.81v-.41l.41-.41.41-.41h2v-.41H407l.82-.41h.41l.41-.41.41-.41.41-.41V353l.81-.82h1.23l.41.41v.82h1.64l.4.81.41.41h.41l.41-.82v-.4l.82-.82.41-.41.82-.82.41-.41,1.22-.41,1.64-1.63.41-.82.41-.82v-.41l.41-.41h.81l.82-.82.82-1.63.41-.41v-.82l-.82-.82v-2l-.41-.41v-.82l-.41-.41v-1.23l-.41-.81v-.41l.41-1.64h.41v-.41l.41-.41h.41l.41-1.23v-.81l-.41-1.23.41-.41v-.82l.82-.82v-.4h.41l.41-1.23h.41V326l.4-1.64h.41v-1.63l.41-.41v-.41h.41v-.41h.41l.41-.41.82-.41h1.22l.41.41.41.82v.41l-.41.41v2l.82.82h.41v-3.68l.41-.82v-.41l.41-.41v-.82l.41-.4V299.83l.41-.41v-4.5l.41-.82v-3.27l.41-.82v-.82l.4-2.45v-3.68l.41-1.64V276.1l.41-2,.41-2.05V261l-.41-2.05v-.81h.41v-1.64ZM354.92,163.2a10.46,10.46,0,1,1,10.46-10.46A10.46,10.46,0,0,1,354.92,163.2Z"/><polygon class="cls-1" points="316.62 271.61 316.62 271.2 316.62 270.38 315.39 268.33 314.98 267.11 314.98 266.7 314.98 266.29 314.98 265.47 314.57 265.47 314.57 265.88 313.75 265.88 313.75 266.7 313.75 267.11 314.16 267.51 314.98 268.74 315.39 269.97 315.8 271.2 316.21 272.42 317.44 274.06 317.44 274.47 317.44 274.88 317.85 274.88 317.85 274.47 316.62 271.61"/><polygon class="cls-1" points="325.62 279.79 325.21 279.79 324.39 279.79 323.98 280.6 322.35 279.38 321.53 279.38 320.71 279.38 320.3 279.38 319.48 278.56 319.07 278.15 319.07 277.74 318.66 276.92 318.25 276.51 318.25 275.7 318.25 275.29 317.85 274.88 317.85 275.7 317.85 276.51 318.25 276.92 318.25 278.56 318.66 279.38 319.07 279.79 320.71 280.6 321.94 281.83 322.75 282.24 323.57 282.65 324.39 282.65 324.8 282.65 325.21 282.24 326.44 281.83 327.66 281.01 328.07 280.6 326.85 280.6 325.62 279.79"/><path class="cls-2" d="M51.7,105.42a44.89,44.89,0,0,1-1.45,11.79,24.89,24.89,0,0,1-4.54,9.12,19.93,19.93,0,0,1-8,5.88,31.06,31.06,0,0,1-11.87,2,30.32,30.32,0,0,1-11.63-2,20.13,20.13,0,0,1-8-5.88,25.4,25.4,0,0,1-4.66-9.12A42.69,42.69,0,0,1,0,105.34,38.57,38.57,0,0,1,2.74,90.18a21.06,21.06,0,0,1,8.46-10q5.72-3.53,14.73-3.53,9.24,0,14.92,3.56a20.5,20.5,0,0,1,8.26,10A40.54,40.54,0,0,1,51.7,105.42Zm-34.94,0a36.37,36.37,0,0,0,.9,8.65,11.5,11.5,0,0,0,2.9,5.6,7.22,7.22,0,0,0,5.29,2,7.26,7.26,0,0,0,5.4-2,11.36,11.36,0,0,0,2.82-5.6,37.57,37.57,0,0,0,.87-8.65q0-7.61-2-12a7.09,7.09,0,0,0-7-4.38,7.4,7.4,0,0,0-5.41,2,11.46,11.46,0,0,0-2.9,5.64A38.71,38.71,0,0,0,16.76,105.42Z"/><path class="cls-2" d="M78.8,77.53a33.18,33.18,0,0,1,12,1.88A15,15,0,0,1,98,84.93a16.11,16.11,0,0,1,2.43,9.13,20.26,20.26,0,0,1-.9,6.19,14.72,14.72,0,0,1-2.74,5A17.33,17.33,0,0,1,92,109.1l15.19,24.36H89.06L78.72,113.09H76.45v20.37h-16V77.53ZM78.88,89H76.45v12.77h2.11a6,6,0,0,0,2.67-.67,5.38,5.38,0,0,0,2.23-2.19,8.08,8.08,0,0,0,.9-4.11,7.81,7.81,0,0,0-.55-3.1,4.16,4.16,0,0,0-1.72-2A6.22,6.22,0,0,0,78.88,89Z"/><path class="cls-2" d="M111,133.46V77.53h16v43.71h19.58v12.22Z"/><path class="cls-2" d="M186.81,133.46,184.94,123H169l-2,10.5H149.37L165.74,77.3h21.94l16.6,56.16Zm-7.12-32.19c-.26-1.26-.58-2.67-.94-4.23s-.72-3.2-1.06-4.9-.61-3.3-.82-4.82q-.48,3.45-1.26,7.25t-1.41,6.62l-2.19,9.4h9.87Z"/><path class="cls-2" d="M261.46,133.46H240.31l-17.15-39.4h-.31c.1,1.83.2,3.47.31,4.93s.2,3,.27,4.66.12,3.18.12,4.59v25.22h-14.1V77.53h21.07l17.08,38.85h.23l-.27-4.77c-.08-1.41-.15-2.9-.2-4.47s-.07-3-.07-4.31V77.53h14.17Z"/><path class="cls-2" d="M317,104.32q0,9.72-3.41,16.21a22.31,22.31,0,0,1-9.52,9.72,29.86,29.86,0,0,1-14.1,3.21H271.8V77.53h19.11q8.63,0,14.42,3.1a20.1,20.1,0,0,1,8.73,9A32.89,32.89,0,0,1,317,104.32Zm-16.53.55a29.72,29.72,0,0,0-1-8.46,9.57,9.57,0,0,0-3.17-5,8.7,8.7,0,0,0-5.44-1.65h-3.06v31.33H290q5.56,0,8-4T300.47,104.87Z"/><path class="cls-2" d="M375.59,105.42a44.89,44.89,0,0,1-1.45,11.79,24.75,24.75,0,0,1-4.55,9.12,19.83,19.83,0,0,1-8,5.88,31.1,31.1,0,0,1-11.87,2,30.32,30.32,0,0,1-11.63-2,20.13,20.13,0,0,1-8-5.88,25.4,25.4,0,0,1-4.66-9.12,42.69,42.69,0,0,1-1.53-11.87,38.57,38.57,0,0,1,2.74-15.16,21.06,21.06,0,0,1,8.46-10q5.71-3.53,14.73-3.53,9.24,0,14.92,3.56a20.5,20.5,0,0,1,8.26,10A40.74,40.74,0,0,1,375.59,105.42Zm-34.94,0a36.37,36.37,0,0,0,.9,8.65,11.5,11.5,0,0,0,2.9,5.6,8.27,8.27,0,0,0,10.69,0,11.36,11.36,0,0,0,2.82-5.6,37.62,37.62,0,0,0,.86-8.65q0-7.61-1.95-12a7.09,7.09,0,0,0-7.05-4.38,7.4,7.4,0,0,0-5.41,2,11.46,11.46,0,0,0-2.9,5.64A38.71,38.71,0,0,0,340.65,105.42Z"/><path class="cls-2" d="M378.72,127.11c0-2.71.83-4.62,2.51-5.71a10.43,10.43,0,0,1,5.87-1.65,9.6,9.6,0,0,1,5.6,1.65c1.59,1.09,2.39,3,2.39,5.71q0,3.84-2.39,5.57a9.37,9.37,0,0,1-5.6,1.72,10.17,10.17,0,0,1-5.87-1.72C379.55,131.53,378.72,129.67,378.72,127.11Z"/><path class="cls-2" d="M437.62,133.46H422V77.53H453.6V89.67h-16v10.66h14.65v12.14H437.62Z"/><path class="cls-2" d="M461.28,133.46V77.53h16v43.71h19.58v12.22Z"/></g></g></svg>