<svg xmlns="http://www.w3.org/2000/svg" viewBox="0 0 574.62 430.81"><defs><style>.cls-1{fill:#fca311;}.cls-2{fill:#fff;}</style></defs><g id="Capa_2" data-name="Capa 2"><g id="Capa_1-2" data-name="Capa 1"><path class="cls-1" d="M447.56,303.08l-14.45-7.74-7.39-5.71-5.05-12.1L415,271.82l-8.07.33-5.21-6.21,1-7.4L441,244.09,430.76,234l-.51-16.47-4.7-27.39,9.07-3.86-2-5.21-9.92-9.75-1.85-18.49L407.9,145.1l-14.12-13.61L375,117l-.34-18.82-5.71-9.41L342.16,23l-9.94,5.23L328,36.1l-12,1.56-12.55,2.62L294,42.9l-8.89-6.28-2.09-7.85,1-12.55-1-12.56L276.77,0l-6.28,14.65L260,24.06l-3.14,14.13-6.8,8.37L255.32,57l-3.14,2.62-11-8.89-8.89,1.56.52,4.19,7.33,7.32,2.09,5.76L237,71.67l-7.33-7.32L219.75,57l-7.33,4.19,3.14,6.8,6.8,4.18-3.14,3.67-9.94-4.71L198.82,67l-4.71,9.42V87.89l-2.62,17.78-3.66,6.8-9.41,2.1-12-4.71-7.84-2.09-5.76,2.61-11-1-5.76-6.8,4.71-8.37L146,85.8l3.66-10.47L147,67l-8.37.53-4.19,6.27-9.94-.52-7.84.52L110.93,79,102,87.89,98.5,104.34l-4.83,9.71-9.42,5.23L78,128.17l-8.37,9.41-.52,10.47,6.8,6.8h7.85L87.39,169l-7.84,15.7-4.71,10.46-10.47,11-2.45,7.19,14.62,16.62,12,7.84L98,245.62l8.37,5.23,15.69,10.46,19.88,8.9,33,8.89,7.84-3.66,13.61-1.05,6.8,6.8,9.94,7.33L234,293.23l7.85,4.18h7.85l15.69-3.14,31.39,36.62,3.66,14.65,8.89,1,5.23,4.18L304.1,362.28l9.42,9.94,8.89,9.42,16.74,9.94,9.94,7.84,6.8,13.08,18.31,18.31h12l3.14-5.75-1.57-16.74L390.94,390l9.42-15.7,10.46-6.8,12.56-5.75,12.55-13.6,6.8-17.79,5.76-22.49ZM346.92,156a10.47,10.47,0,1,1,10.46-10.46A10.46,10.46,0,0,1,346.92,156Z"/><path class="cls-2" d="M19,179.76q9.95,0,15.07,4.62t5.13,13.16a24.73,24.73,0,0,1-1.84,9.55,15.51,15.51,0,0,1-6.15,7.25q-4.3,2.78-11.67,2.78H16v18.56H0V179.76ZM18.88,192H16v12.85h2.27a4.67,4.67,0,0,0,2.35-.67,5,5,0,0,0,2-2.19,8.89,8.89,0,0,0,.78-4,7.65,7.65,0,0,0-1.09-4.31A3.78,3.78,0,0,0,18.88,192Z"/><path class="cls-2" d="M75.35,235.68l-1.88-10.49H57.57l-2,10.49H37.91l16.37-56.16H76.21l16.61,56.16Zm-7.13-32.19c-.26-1.25-.57-2.66-.94-4.23s-.71-3.2-1-4.9-.62-3.3-.83-4.81c-.31,2.29-.73,4.71-1.25,7.24s-1,4.74-1.41,6.62l-2.19,9.4h9.87Z"/><path class="cls-2" d="M116.32,179.76a32.87,32.87,0,0,1,11.94,1.88,14.88,14.88,0,0,1,7.25,5.52,16.1,16.1,0,0,1,2.43,9.12,20.57,20.57,0,0,1-.9,6.19,14.74,14.74,0,0,1-2.75,5,16.69,16.69,0,0,1-4.74,3.84l15.2,24.36H126.58l-10.34-20.36H114v20.36H98V179.76Zm.08,11.43H114V204h2.11a5.86,5.86,0,0,0,2.67-.67A5.44,5.44,0,0,0,121,201.1a8.08,8.08,0,0,0,.9-4.11,7.88,7.88,0,0,0-.55-3.1,4.19,4.19,0,0,0-1.72-2A6.26,6.26,0,0,0,116.4,191.19Z"/><path class="cls-2" d="M175.22,235.68h-29.3v-8.61l6.66-2.67V191l-6.66-2.59v-8.61h29.3v8.61L168.64,191V224.4l6.58,2.67Z"/><path class="cls-2" d="M207.73,191.35a8.58,8.58,0,0,0-4.43,1.13,9.3,9.3,0,0,0-3.21,3.29,16.73,16.73,0,0,0-1.92,5.21,34.74,34.74,0,0,0-.63,7,26.53,26.53,0,0,0,1.29,8.86,11.21,11.21,0,0,0,3.84,5.44,10.47,10.47,0,0,0,6.31,1.84,20.73,20.73,0,0,0,6.54-1,40.77,40.77,0,0,0,6-2.51v12.77a29.74,29.74,0,0,1-7.28,2.39,40.78,40.78,0,0,1-7.84.75q-8.85,0-14.41-3.61a20.94,20.94,0,0,1-8.15-10.06,40,40,0,0,1-2.58-14.92,38.33,38.33,0,0,1,1.68-11.64,26.09,26.09,0,0,1,5-9.16,22.44,22.44,0,0,1,8.14-6A27.36,27.36,0,0,1,207.18,179a39.25,39.25,0,0,1,8.38,1,36.25,36.25,0,0,1,8.38,2.9l-4.78,11.9a36.11,36.11,0,0,0-5.36-2.46A17.61,17.61,0,0,0,207.73,191.35Z"/><path class="cls-2" d="M277,213.44a27,27,0,0,1-2.59,12.22,18.25,18.25,0,0,1-7.71,8q-5.13,2.82-12.89,2.82-11.11,0-17-5.92t-5.88-16.8v-34H247v32.81c0,4,.6,6.85,1.8,8.62a5.85,5.85,0,0,0,5.17,2.66,5.93,5.93,0,0,0,6.34-4.85,24.62,24.62,0,0,0,.71-6.5V179.76h16Z"/><path class="cls-2" d="M318.56,235.68l-1.88-10.49h-15.9l-2,10.49H281.12l16.37-56.16h21.93L336,235.68Zm-7.13-32.19c-.26-1.25-.57-2.66-.94-4.23s-.71-3.2-1.05-4.9-.62-3.3-.83-4.81c-.31,2.29-.73,4.71-1.25,7.24s-1,4.74-1.41,6.62l-2.19,9.4h9.87Z"/><path class="cls-2" d="M338.54,229.34c0-2.72.83-4.62,2.5-5.72a10.44,10.44,0,0,1,5.88-1.65,9.63,9.63,0,0,1,5.6,1.65c1.59,1.1,2.39,3,2.39,5.72q0,3.84-2.39,5.56a9.33,9.33,0,0,1-5.6,1.72A10.11,10.11,0,0,1,341,234.9Q338.54,233.18,338.54,229.34Z"/><path class="cls-2" d="M400.73,179.76q9.94,0,15.07,4.62t5.13,13.16a24.73,24.73,0,0,1-1.84,9.55,15.54,15.54,0,0,1-6.14,7.25q-4.32,2.78-11.68,2.78h-3.52v18.56h-16V179.76ZM400.65,192h-2.9v12.85H400a4.67,4.67,0,0,0,2.35-.67,5,5,0,0,0,2-2.19,8.89,8.89,0,0,0,.78-4,7.65,7.65,0,0,0-1.09-4.31A3.78,3.78,0,0,0,400.65,192Z"/><path class="cls-2" d="M478.51,207.64a44.84,44.84,0,0,1-1.45,11.79,24.68,24.68,0,0,1-4.55,9.12,19.79,19.79,0,0,1-8,5.88,30.81,30.81,0,0,1-11.86,2,30.12,30.12,0,0,1-11.63-2,20.06,20.06,0,0,1-8-5.88,25.16,25.16,0,0,1-4.66-9.12,42.69,42.69,0,0,1-1.53-11.87,38.6,38.6,0,0,1,2.74-15.16,21.11,21.11,0,0,1,8.46-10q5.72-3.53,14.73-3.53,9.24,0,14.92,3.57a20.48,20.48,0,0,1,8.26,10A40.74,40.74,0,0,1,478.51,207.64Zm-34.94,0a36.51,36.51,0,0,0,.9,8.66,11.59,11.59,0,0,0,2.9,5.6,8.3,8.3,0,0,0,10.69,0,11.45,11.45,0,0,0,2.82-5.6,37.77,37.77,0,0,0,.86-8.66q0-7.59-1.95-12a7.08,7.08,0,0,0-7.05-4.39,7.4,7.4,0,0,0-5.41,2,11.37,11.37,0,0,0-2.9,5.64A38.62,38.62,0,0,0,443.57,207.64Z"/><path class="cls-2" d="M505.61,179.76a32.87,32.87,0,0,1,11.94,1.88,14.88,14.88,0,0,1,7.25,5.52,16.1,16.1,0,0,1,2.43,9.12,20.26,20.26,0,0,1-.9,6.19,14.57,14.57,0,0,1-2.75,5,16.78,16.78,0,0,1-4.73,3.84L534,235.68H515.87l-10.34-20.36h-2.27v20.36h-16V179.76Zm.08,11.43h-2.43V204h2.11a5.86,5.86,0,0,0,2.67-.67,5.44,5.44,0,0,0,2.23-2.19,8.08,8.08,0,0,0,.9-4.11,7.88,7.88,0,0,0-.55-3.1,4.19,4.19,0,0,0-1.72-2A6.26,6.26,0,0,0,505.69,191.19Z"/><path class="cls-2" d="M562.63,235.68h-16V192.13h-12V179.76h40v12.37h-12Z"/></g></g></svg>