<svg xmlns="http://www.w3.org/2000/svg" viewBox="0 0 28.14 28.14"><defs><style>.cls-1{fill:#e6e6e6;}.cls-2{fill:gray;}</style></defs><g id="Capa_2" data-name="Capa 2"><g id="Capa_1-2" data-name="Capa 1"><circle class="cls-1" cx="14.07" cy="14.07" r="14.07"/><path class="cls-2" d="M14.05,25.07a11.1,11.1,0,0,1-8.27-3.76,1.65,1.65,0,0,1-.38-1.69,9.07,9.07,0,0,1,3-4.54A1.38,1.38,0,0,1,10.21,15a6.71,6.71,0,0,0,6.79.54,6,6,0,0,0,.94-.56,1.34,1.34,0,0,1,1.74,0,8.92,8.92,0,0,1,3.09,4.81,1.36,1.36,0,0,1-.27,1.27A10.9,10.9,0,0,1,15.59,25,9.89,9.89,0,0,1,14.05,25.07Z"/><path class="cls-2" d="M14.08,4.29A5.05,5.05,0,1,1,9,9.31,5,5,0,0,1,14.08,4.29Z"/></g></g></svg>