<svg xmlns="http://www.w3.org/2000/svg" viewBox="0 0 44.51 44.47"><defs><style>.cls-1{fill:#fff;}</style></defs><g id="Capa_2" data-name="Capa 2"><g id="Capa_1-2" data-name="Capa 1"><g id="layer102"><path class="cls-1" d="M44.46,21.18A22.44,22.44,0,0,0,36.11,4.86,22,22,0,0,0,31,1.77l-1-.44A29.24,29.24,0,0,0,24.52.08a27,27,0,0,0-5.76.18,21.12,21.12,0,0,0-6.29,2A23,23,0,0,0,6.34,6.73a20.93,20.93,0,0,0-4.65,6.89,39,39,0,0,0-1.4,5,24.9,24.9,0,0,0,.08,8.08A23.41,23.41,0,0,0,3.15,33.6c.8,1.34.8,1.37.09,3.85-.54,1.92-.91,3.24-1,3.63,0,.13-.15.56-.25,1-.18.67-.18.74-.05.94s.19.22.39.14A1.5,1.5,0,0,1,2.79,43a3.14,3.14,0,0,0,.76-.19c.28-.1.79-.24,1.12-.32.68-.14,2.19-.52,3.79-1l1.4-.38c.38-.11.4-.11,2.65,1.08a19.8,19.8,0,0,0,7.64,2.16,21.71,21.71,0,0,0,12-2.16,22.32,22.32,0,0,0,8.91-8A20.79,20.79,0,0,0,44.46,21.18Zm-9,9.45a4.74,4.74,0,0,0-.23.79,5.32,5.32,0,0,1-1.49,1.68,6.91,6.91,0,0,1-4.09,1.66,6.21,6.21,0,0,1-1,0c-.1,0-.42-.1-.72-.19s-.75-.17-1-.22a3.75,3.75,0,0,1-.8-.22,7.82,7.82,0,0,0-.77-.25,2.84,2.84,0,0,1-.65-.22,3,3,0,0,0-.55-.23,7,7,0,0,1-.78-.33,2.08,2.08,0,0,0-.58-.23.51.51,0,0,1-.3-.14,1.25,1.25,0,0,0-.44-.26,10.88,10.88,0,0,1-1.36-.71l-.47-.26a2.54,2.54,0,0,1-.45-.32.38.38,0,0,0-.25-.15.61.61,0,0,1-.29-.16,7.14,7.14,0,0,0-.72-.53,21.47,21.47,0,0,1-3.36-3,26.68,26.68,0,0,1-3.8-4.38l-.41-.64a15.76,15.76,0,0,1-1.42-2.68.43.43,0,0,0-.14-.24.79.79,0,0,1-.2-.45A6.12,6.12,0,0,0,8.85,18a4.48,4.48,0,0,1-.23-2,5,5,0,0,1,.29-2.31,5.54,5.54,0,0,1,.44-1,.43.43,0,0,0,.13-.22,9.12,9.12,0,0,1,1.23-1.75,4.27,4.27,0,0,1,1.35-.94,6.07,6.07,0,0,1,2.58,0,2.22,2.22,0,0,1,.92,1.12c.12.24.31.66.43.91l.45,1a3,3,0,0,1,.24.62,1.6,1.6,0,0,0,.18.47,5.08,5.08,0,0,1,.72,2.3c0,.77,0,.78-.32,1.3-.19.28-.43.59-.51.68a.51.51,0,0,0-.16.24,2.56,2.56,0,0,1-.42.51c-.88.91-.83,1.52.23,3.06A19.54,19.54,0,0,0,20,25.8c.37.31.78.65.91.77a1,1,0,0,0,.29.2.51.51,0,0,1,.23.18,1.51,1.51,0,0,0,.46.29,2.32,2.32,0,0,1,.43.23,9.31,9.31,0,0,0,1.57.82,1,1,0,0,1,.35.17,4.25,4.25,0,0,0,.73.31c.56.2.61.2.84.06a17.61,17.61,0,0,0,2.07-2.12c.59-.7.9-.89,1.49-.88a2,2,0,0,1,1,.28,2.77,2.77,0,0,0,.65.29.45.45,0,0,1,.23.14,1.21,1.21,0,0,0,.51.24,1.16,1.16,0,0,1,.51.23,1.17,1.17,0,0,0,.49.23,2.66,2.66,0,0,1,.61.27,1.56,1.56,0,0,0,.53.22,1.64,1.64,0,0,1,.5.23,1.57,1.57,0,0,0,.49.23,1.45,1.45,0,0,1,.54.32c.22.21.25.3.25.85A4,4,0,0,1,35.47,30.63Z"/></g></g></g></svg>