<svg xmlns="http://www.w3.org/2000/svg" viewBox="0 0 156.14 156.14"><defs><style>.cls-1{fill:#fff;}.cls-2{fill:#14213d;}</style></defs><g id="Capa_2" data-name="Capa 2"><g id="Capa_1-2" data-name="Capa 1"><circle class="cls-1" cx="78.07" cy="78.07" r="78.07"/><circle class="cls-2" cx="78.07" cy="78.07" r="69.58"/><polygon class="cls-1" points="88.53 83.33 79.89 83.33 79.89 74.98 76.25 74.98 76.25 83.33 66.61 83.33 66.61 87.3 76.25 87.3 76.25 108.88 79.89 108.88 79.89 87.3 88.53 87.3 88.53 83.33"/><path class="cls-1" d="M118.49,107.6s-24.76-7.9-38.6-1c0,0,10.41-8.74,38.5-.94,0,0-25.44-13.72-40.32.58-14.88-14.3-40.32-.58-40.32-.58,28.09-7.8,38.5.94,38.5.94-13.84-6.86-38.6,1-38.6,1l-4.89,4.3a232.35,232.35,0,0,1,38.5-1.28A2.63,2.63,0,0,1,74,111.9h8.22a2.63,2.63,0,0,1,2.7-1.28,232.35,232.35,0,0,1,38.5,1.28Z"/><path class="cls-1" d="M37.9,60.18c.5-.38,3.24,1.06,4,1.3a36.48,36.48,0,0,0,4.63,1.17,37.79,37.79,0,0,0,9.32.59,17.17,17.17,0,0,0,7.27-1.82c3.38-1.88,5.52-5.45,6.62-9.14a49,49,0,0,0,1.43-18.94.25.25,0,0,1,0-.21c1.1,1.45,1.52,3.9,2,5.61a42.64,42.64,0,0,1,1.59,9.18c.19,6.55-1.45,13-3.49,19.22-1.9,5.78-4.18,11.51-7.69,16.51A39.56,39.56,0,0,1,52,94.5c-4.4,2.71-9.14,5.15-14.38,5.62-1.28,0,8.88-4.51,13.2-8.56s8.76-8.68,8.65-15.74S51.75,66.9,46.72,65.4C44,64.58,39,63.22,37.9,60.18Z"/><path class="cls-1" d="M38.8,63.47a.22.22,0,0,1,.29-.29q4.68,1.88,9.33,3.82c3.46,1.45,8.21,2.84,9.51,6.78a8.29,8.29,0,0,1,.15,4c-.83,5-3.9,8.33-7.57,11.6a41.24,41.24,0,0,1-13,8.3,25.16,25.16,0,0,1-2.66,1.21.41.41,0,0,1-.11-.8c3.77-1.17,7.19-3.85,10.08-6.43,3.56-3.16,6.8-6.94,8.21-11.54a8.1,8.1,0,0,0,.4-3.71c-.81-4.91-6.41-6.57-10.06-8.81C41.78,66.59,39.55,65.24,38.8,63.47Z"/><ellipse class="cls-1" cx="60.62" cy="54.32" rx="5.61" ry="6.08"/><path class="cls-1" d="M118.24,60.18c-.5-.38-3.24,1.06-4,1.3a36.76,36.76,0,0,1-4.62,1.17,37.85,37.85,0,0,1-9.32.59,17.18,17.18,0,0,1-7.28-1.82c-3.38-1.88-5.52-5.45-6.62-9.14A49,49,0,0,1,85,33.34a.3.3,0,0,0,0-.21c-1.11,1.45-1.53,3.9-2,5.61a42.64,42.64,0,0,0-1.59,9.18c-.19,6.55,1.45,13,3.49,19.22,1.91,5.78,4.18,11.51,7.69,16.51A39.47,39.47,0,0,0,104.16,94.5c4.39,2.71,9.13,5.15,14.37,5.62,1.28,0-8.88-4.51-13.2-8.56s-8.76-8.68-8.65-15.74,7.71-8.92,12.74-10.42C112.14,64.58,117.12,63.22,118.24,60.18Z"/><path class="cls-1" d="M117.34,63.47a.22.22,0,0,0-.29-.29q-4.68,1.88-9.33,3.82c-3.46,1.45-8.21,2.84-9.51,6.78a8.29,8.29,0,0,0-.15,4c.83,5,3.9,8.33,7.57,11.6a41.24,41.24,0,0,0,13,8.3,25.16,25.16,0,0,0,2.66,1.21.41.41,0,0,0,.11-.8c-3.77-1.17-7.19-3.85-10.08-6.43-3.56-3.16-6.79-6.94-8.21-11.54a8.1,8.1,0,0,1-.4-3.71c.81-4.91,6.41-6.57,10.06-8.81C114.36,66.59,116.59,65.24,117.34,63.47Z"/><ellipse class="cls-1" cx="95.52" cy="54.32" rx="5.61" ry="6.08"/></g></g></svg>